<?xml version="1.0" encoding="UTF-8" standalone="no"?>
<!-- Created with Inkscape (http://www.inkscape.org/) -->

<svg
   xmlns:dc="http://purl.org/dc/elements/1.1/"
   xmlns:cc="http://creativecommons.org/ns#"
   xmlns:rdf="http://www.w3.org/1999/02/22-rdf-syntax-ns#"
   xmlns:svg="http://www.w3.org/2000/svg"
   xmlns="http://www.w3.org/2000/svg"
   xmlns:sodipodi="http://sodipodi.sourceforge.net/DTD/sodipodi-0.dtd"
   xmlns:inkscape="http://www.inkscape.org/namespaces/inkscape"
   width="350"
   height="350"
   viewBox="0 0 350.00001 350.00001"
   id="svg4203"
   version="1.1"
   inkscape:version="0.91 r13725"
   sodipodi:docname="logo.svg">
  <defs
     id="defs4205" />
  <sodipodi:namedview
     id="base"
     pagecolor="#ffffff"
     bordercolor="#666666"
     borderopacity="1.0"
     inkscape:pageopacity="0.0"
     inkscape:pageshadow="2"
     inkscape:zoom="1.4"
     inkscape:cx="307.74133"
     inkscape:cy="210.47752"
     inkscape:document-units="px"
     inkscape:current-layer="layer1"
     showgrid="false"
     units="px"
     fit-margin-top="0"
     fit-margin-left="0"
     fit-margin-right="0"
     fit-margin-bottom="0"
     inkscape:window-width="1920"
     inkscape:window-height="997"
     inkscape:window-x="1920"
     inkscape:window-y="0"
     inkscape:window-maximized="1" />
  <metadata
     id="metadata4208">
    <rdf:RDF>
      <cc:Work
         rdf:about="">
        <dc:format>image/svg+xml</dc:format>
        <dc:type
           rdf:resource="http://purl.org/dc/dcmitype/StillImage" />
        <dc:title></dc:title>
      </cc:Work>
    </rdf:RDF>
  </metadata>
  <g
     inkscape:label="Layer 1"
     inkscape:groupmode="layer"
     id="layer1"
     transform="translate(-65.480417,-662.76633)">
    <path
       sodipodi:nodetypes="ccssccssc"
       inkscape:connector-curvature="0"
       id="path4440"
       d="m 168.46631,904.16552 26.65916,-8.6742 c 0,0 -5.58991,-42.78137 -2.08442,-91.59617 2.14317,-29.8438 8.14586,-61.86382 19.5083,-88.53341 29.94766,-70.29238 54.62064,13.50511 54.62064,13.50511 l 26.33502,-8.32816 c 0,0 -31.72999,-101.03254 -89.69172,-43.87135 -15.19985,14.98994 -32.85548,66.9941 -36.91858,111.55971 -5.39452,59.1692 1.5716,115.93847 1.5716,115.93847 z"
       style="display:inline;fill:#333f4f;fill-opacity:0;fill-rule:evenodd;stroke:none;stroke-width:1px;stroke-linecap:butt;stroke-linejoin:miter;stroke-opacity:1" />
    <path
       sodipodi:nodetypes="ccsssccsssc"
       inkscape:connector-curvature="0"
       id="path4442"
       d="m 150.05689,846.33775 0.21222,-36.0761 c 0,0 -88.2267,66.4111 -70.670059,114.27917 17.556648,47.8681 124.451269,33.5618 238.323359,-49.99457 91.5581,-67.1831 92.2074,-125.1279 58.8222,-139.28912 -25.5394,-10.83317 -52.3411,-5.30249 -52.3411,-5.30249 -4.0751,8.46361 -7.5514,16.41731 -8.0372,27.07415 0,0 37.9009,-9.73211 50.7414,5.37574 15.9384,18.75292 -41.3718,78.03192 -99.63758,113.51792 -65.23875,39.73277 -142.79051,61.30997 -160.55854,41.67937 -16.25468,-17.9586 43.1453,-71.26407 43.1453,-71.26407 z"
       style="display:inline;fill:#333f4f;fill-opacity:1;fill-rule:evenodd;stroke:none;stroke-width:1px;stroke-linecap:butt;stroke-linejoin:miter;stroke-opacity:1" />
    <path
       sodipodi:nodetypes="cccccsccssc"
       inkscape:connector-curvature="0"
       id="path4444"
       d="m 168.41223,904.44322 26.65917,-8.6742 c 0,0 -2.46655,-13.23817 -3.32084,-37.29137 l -18.90214,-11.0254 19.2897,-40.3084 c 2.14316,-29.8438 8.99471,-64.83486 20.35715,-91.50446 29.94767,-70.29237 55.38157,12.52756 55.38157,12.52756 5.94082,-4.18788 15.38497,-14.0586 20.17457,-23.99106 0,0 -26.06208,-84.11862 -84.2922,-27.2309 -19.94984,19.48994 -32.85548,66.99411 -36.91859,111.55976 -5.39451,59.1691 1.57161,115.93847 1.57161,115.93847 z"
       style="color:#000000;clip-rule:nonzero;display:inline;overflow:visible;visibility:visible;opacity:1;isolation:auto;mix-blend-mode:normal;color-interpolation:sRGB;color-interpolation-filters:linearRGB;solid-color:#000000;solid-opacity:1;fill:#333f4f;fill-opacity:1;fill-rule:evenodd;stroke:none;stroke-width:1px;stroke-linecap:butt;stroke-linejoin:miter;stroke-miterlimit:4;stroke-dasharray:none;stroke-dashoffset:0;stroke-opacity:1;color-rendering:auto;image-rendering:auto;shape-rendering:auto;text-rendering:auto;enable-background:accumulate" />
    <path
       sodipodi:nodetypes="ccsccsc"
       inkscape:connector-curvature="0"
       id="path4446"
       d="m 317.28901,921.98992 -6.1898,26.9727 c 0,0 59.5689,15.7597 79.7175,-16.3187 22.5187,-35.8517 -23.1087,-81.78097 -23.1087,-81.78097 l -20.4077,18.9072 c 0,0 28.8802,31.57227 20.7077,46.51757 -7.7867,14.24 -50.719,5.7022 -50.719,5.7022 z"
       style="color:#000000;clip-rule:nonzero;display:inline;overflow:visible;visibility:visible;opacity:1;isolation:auto;mix-blend-mode:normal;color-interpolation:sRGB;color-interpolation-filters:linearRGB;solid-color:#000000;solid-opacity:1;fill:#333f4f;fill-opacity:1;fill-rule:evenodd;stroke:none;stroke-width:0.5;stroke-linecap:butt;stroke-linejoin:miter;stroke-miterlimit:4;stroke-dasharray:none;stroke-dashoffset:0;stroke-opacity:1;color-rendering:auto;image-rendering:auto;shape-rendering:auto;text-rendering:auto;enable-background:accumulate" />
    <path
       sodipodi:nodetypes="ccsccsc"
       inkscape:connector-curvature="0"
       id="path4448"
       d="m 306.33481,900.98192 -31.06173,19.2448 c 0,0 -11.60236,67.1975 -37.36415,73.0401 -15.76511,3.5754 -30.61157,-41.9098 -30.61157,-41.9098 l -26.40999,8.4472 c 0,0 20.10235,64.92108 59.57252,61.07308 53.87032,-5.252 65.87492,-119.89538 65.87492,-119.89538 z"
       style="color:#000000;clip-rule:nonzero;display:inline;overflow:visible;visibility:visible;opacity:1;isolation:auto;mix-blend-mode:normal;color-interpolation:sRGB;color-interpolation-filters:linearRGB;solid-color:#000000;solid-opacity:1;fill:#333f4f;fill-opacity:1;fill-rule:evenodd;stroke:none;stroke-width:0.5;stroke-linecap:butt;stroke-linejoin:miter;stroke-miterlimit:4;stroke-dasharray:none;stroke-dashoffset:0;stroke-opacity:1;color-rendering:auto;image-rendering:auto;shape-rendering:auto;text-rendering:auto;enable-background:accumulate" />
    <path
       sodipodi:nodetypes="ccsccsc"
       inkscape:connector-curvature="0"
       id="path4450"
       d="m 163.18067,730.96764 -6.00227,27.16027 c 0,0 -45.91737,-9.15346 -51.61953,7.05266 -5.38721,15.31098 21.30805,45.31718 21.30805,45.31718 l -20.1076,18.9071 c 0,0 -44.70028,-47.0356 -23.108719,-81.63085 18.628569,-29.84786 79.530069,-16.80636 79.530069,-16.80636 z"
       style="color:#000000;clip-rule:nonzero;display:inline;overflow:visible;visibility:visible;opacity:1;isolation:auto;mix-blend-mode:normal;color-interpolation:sRGB;color-interpolation-filters:linearRGB;solid-color:#000000;solid-opacity:1;fill:#333f4f;fill-opacity:1;fill-rule:evenodd;stroke:none;stroke-width:1px;stroke-linecap:butt;stroke-linejoin:miter;stroke-miterlimit:4;stroke-dasharray:none;stroke-dashoffset:0;stroke-opacity:1;color-rendering:auto;image-rendering:auto;shape-rendering:auto;text-rendering:auto;enable-background:accumulate" />
    <path
       sodipodi:nodetypes="zzssssssssccssssccssssccsszz"
       inkscape:connector-curvature="0"
       id="path4436"
       d="m 417.86051,525.74222 c -25.7621,-14.87382 -36.0552,35.34278 -66.4022,87.90519 -30.3469,52.56244 -59.2575,110.71767 -79.12773,119.96264 -22.4025,10.42312 -38.73922,15.86459 -53.22715,40.9584 -13.11366,22.7135 -40.51576,70.2551 -38.2926,71.5387 l 6.25754,3.6128 c 3.54406,2.0461 17.13034,-22.9041 26.81989,-38.3102 13.61075,-21.6406 18.92315,-32.091 25.51723,-34.3956 0.96995,-0.339 4.43952,1.7127 4.61837,2.6665 1.25993,6.717 -5.76696,16.2996 -18.54031,38.4237 -9.77923,16.9381 -21.85534,37.4899 -20.95737,41.6948 l 7.48538,4.3217 c 3.95471,-1.1558 12.01443,-17.7336 24.62569,-39.5769 12.77335,-22.1241 18.62349,-32.3861 25.17157,-34.5952 0.96603,-0.3259 4.97637,2.1141 5.26556,3.0401 2.28248,7.3074 -4.89581,16.8026 -17.6692,38.9267 -12.65307,21.9158 -21.97751,38.1148 -20.94335,41.7029 l 6.9846,4.0326 c 3.18214,-0.2781 14.01194,-18.1373 25.94907,-38.8129 10.89033,-18.8627 18.19251,-32.635 24.71601,-34.8582 0.842,-0.287 4.782,2.1947 4.9212,2.7438 1.8109,7.1326 -4.2657,17.2638 -17.03904,39.3879 -7.46452,12.929 -17.37152,30.0191 -17.37152,30.0191 l 23.99116,-14.4669 c 0,0 17.2777,-28.6333 22.8956,-38.3639 14.5742,-25.2433 5.6447,-43.9123 5.3565,-68.59647 -0.2427,-20.78594 34.9292,-74.56031 65.6386,-127.75061 30.7095,-53.19029 69.1188,-86.33682 43.3565,-101.21065 z"
       style="color:#000000;clip-rule:nonzero;display:inline;overflow:visible;visibility:visible;opacity:1;isolation:auto;mix-blend-mode:normal;color-interpolation:sRGB;color-interpolation-filters:linearRGB;solid-color:#000000;solid-opacity:1;fill:#333f4f;fill-opacity:1;fill-rule:evenodd;stroke:none;stroke-width:1px;stroke-linecap:butt;stroke-linejoin:miter;stroke-miterlimit:4;stroke-dasharray:none;stroke-dashoffset:0;stroke-opacity:1;color-rendering:auto;image-rendering:auto;shape-rendering:auto;text-rendering:auto;enable-background:accumulate" />
  </g>
</svg>
