<?xml version="1.0" encoding="UTF-8" standalone="no"?>
<!-- Created with Inkscape (http://www.inkscape.org/) -->

<svg
   xmlns:dc="http://purl.org/dc/elements/1.1/"
   xmlns:cc="http://creativecommons.org/ns#"
   xmlns:rdf="http://www.w3.org/1999/02/22-rdf-syntax-ns#"
   xmlns:svg="http://www.w3.org/2000/svg"
   xmlns="http://www.w3.org/2000/svg"
   xmlns:sodipodi="http://sodipodi.sourceforge.net/DTD/sodipodi-0.dtd"
   xmlns:inkscape="http://www.inkscape.org/namespaces/inkscape"
   width="40"
   height="40"
   viewBox="0 0 40 40.000001"
   id="svg3347"
   version="1.1"
   inkscape:version="0.91 r13725"
   sodipodi:docname="user-icon.svg">
  <defs
     id="defs3349" />
  <sodipodi:namedview
     id="base"
     pagecolor="#ffffff"
     bordercolor="#666666"
     borderopacity="1.0"
     inkscape:pageopacity="0.0"
     inkscape:pageshadow="2"
     inkscape:zoom="11.2"
     inkscape:cx="45.767477"
     inkscape:cy="6.6295864"
     inkscape:document-units="px"
     inkscape:current-layer="layer1"
     showgrid="false"
     units="px"
     inkscape:window-width="1920"
     inkscape:window-height="997"
     inkscape:window-x="1920"
     inkscape:window-y="0"
     inkscape:window-maximized="1" />
  <metadata
     id="metadata3352">
    <rdf:RDF>
      <cc:Work
         rdf:about="">
        <dc:format>image/svg+xml</dc:format>
        <dc:type
           rdf:resource="http://purl.org/dc/dcmitype/StillImage" />
        <dc:title></dc:title>
      </cc:Work>
    </rdf:RDF>
  </metadata>
  <g
     inkscape:label="Layer 1"
     inkscape:groupmode="layer"
     id="layer1"
     transform="translate(0,-1012.3622)">
    <path
       style="color:#000000;clip-rule:nonzero;display:inline;overflow:visible;visibility:visible;opacity:1;isolation:auto;mix-blend-mode:normal;color-interpolation:sRGB;color-interpolation-filters:linearRGB;solid-color:#000000;solid-opacity:1;fill:#333f4f;fill-opacity:1;fill-rule:evenodd;stroke:none;stroke-width:1px;stroke-linecap:butt;stroke-linejoin:miter;stroke-miterlimit:4;stroke-dasharray:none;stroke-dashoffset:0;stroke-opacity:1;color-rendering:auto;image-rendering:auto;shape-rendering:auto;text-rendering:auto;enable-background:accumulate"
       d="m 29.380023,1052.0347 c 2.947301,0 1.342828,-4.8186 1.342828,-10.832 0,-6.0134 -0.400288,-12.4354 0.846656,-14.213 1.405852,-2.0041 2.538034,-3.2803 2.538034,-6.1512 0,-2.5985 -0.0039,-8.0352 -0.258291,-8.0352 l -0.715889,0 c -0.405454,0 -0.335203,2.8139 -0.403404,4.6158 -0.0958,2.5311 -0.03393,3.691 -0.485552,4.2153 -0.06643,0.077 -0.465767,0.073 -0.528363,0 -0.44085,-0.5139 -0.312635,-1.6842 -0.312635,-4.2153 0,-1.9378 0.01805,-4.2994 -0.267287,-4.6158 l -0.856358,0 c -0.282066,0.2952 -0.152376,2.1168 -0.152376,4.6158 0,2.5311 0.0064,3.7014 -0.44601,4.2153 -0.06674,0.076 -0.531719,0.065 -0.602404,0 -0.55784,-0.5139 -0.412294,-1.6842 -0.412294,-4.2153 0,-2.5073 -0.0024,-4.3591 -0.268894,-4.6158 l -0.799065,0 c -0.259261,0.1816 -0.303778,2.2504 -0.303778,4.6158 0,2.158 0.05571,3.7014 -0.393893,4.2153 -0.05803,0.066 -0.519021,0.048 -0.558183,0.01 -0.508722,-0.5223 -0.489208,-1.6926 -0.489208,-4.2237 0,-2.9141 0.08045,-4.6157 -0.207867,-4.6157 l -0.844965,0 c -0.258909,0.1585 -0.349604,5.5957 -0.349604,8.0352 0,2.8879 1.691003,4.0474 2.93855,6.1511 1.050532,1.7715 0.696559,8.1279 0.696559,14.213 0,6.0852 -1.653608,10.832 1.293693,10.832 z"
       id="path4403"
       inkscape:connector-curvature="0"
       sodipodi:nodetypes="zzssssssssccssssccssssscsszz" />
    <path
       style="color:#000000;clip-rule:nonzero;display:inline;overflow:visible;visibility:visible;opacity:1;isolation:auto;mix-blend-mode:normal;color-interpolation:sRGB;color-interpolation-filters:linearRGB;solid-color:#000000;solid-opacity:1;fill:#333f4f;fill-opacity:1;fill-rule:evenodd;stroke:none;stroke-width:1px;stroke-linecap:butt;stroke-linejoin:miter;stroke-miterlimit:4;stroke-dasharray:none;stroke-dashoffset:0;stroke-opacity:1;color-rendering:auto;image-rendering:auto;shape-rendering:auto;text-rendering:auto;enable-background:accumulate"
       d="m 27.363973,1031.0022 c -0.992823,2.1483 -3.029843,3.1492 -4.382099,3.1492 l -10.628797,0 c -3.0173307,0 -5.4464172,2.429 -5.4464172,5.4464 l 0,6.1976 c 0,0 2.6280662,-0.036 4.2199932,-0.057 l 0,-5.5186 0.766183,0 0,11.0414 13.166778,0 0,-11.0414 c 0.510047,-1.2853 2.394772,-2.0618 2.409286,-2.9368 0,-1.9476 0.0307,-4.6019 -0.104927,-6.2803 z"
       id="rect4142"
       inkscape:connector-curvature="0"
       sodipodi:nodetypes="cccsccccccccc" />
    <circle
       style="color:#000000;clip-rule:nonzero;display:inline;overflow:visible;visibility:visible;opacity:1;isolation:auto;mix-blend-mode:normal;color-interpolation:sRGB;color-interpolation-filters:linearRGB;solid-color:#000000;solid-opacity:1;fill:#333f4f;fill-opacity:1;fill-rule:evenodd;stroke:none;stroke-width:1px;stroke-linecap:butt;stroke-linejoin:miter;stroke-miterlimit:4;stroke-dasharray:none;stroke-dashoffset:0;stroke-opacity:1;color-rendering:auto;image-rendering:auto;shape-rendering:auto;text-rendering:auto;enable-background:accumulate"
       id="path4158"
       cx="17.533752"
       cy="1026.9185"
       r="5.9913163" />
  </g>
</svg>
