<?xml version="1.0" encoding="UTF-8" standalone="no"?>
<!-- Created with Inkscape (http://www.inkscape.org/) -->

<svg
   xmlns:dc="http://purl.org/dc/elements/1.1/"
   xmlns:cc="http://creativecommons.org/ns#"
   xmlns:rdf="http://www.w3.org/1999/02/22-rdf-syntax-ns#"
   xmlns:svg="http://www.w3.org/2000/svg"
   xmlns="http://www.w3.org/2000/svg"
   xmlns:sodipodi="http://sodipodi.sourceforge.net/DTD/sodipodi-0.dtd"
   xmlns:inkscape="http://www.inkscape.org/namespaces/inkscape"
   width="220"
   height="130"
   viewBox="0 0 220 130"
   id="svg5289"
   version="1.1"
   inkscape:version="0.91 r13725"
   sodipodi:docname="gui-graphic.svg">
  <defs
     id="defs5291" />
  <sodipodi:namedview
     id="base"
     pagecolor="#ffffff"
     bordercolor="#666666"
     borderopacity="1.0"
     inkscape:pageopacity="0.0"
     inkscape:pageshadow="2"
     inkscape:zoom="3.959798"
     inkscape:cx="157.30154"
     inkscape:cy="81.415753"
     inkscape:document-units="px"
     inkscape:current-layer="layer1"
     showgrid="false"
     units="px"
     inkscape:window-width="1920"
     inkscape:window-height="997"
     inkscape:window-x="1920"
     inkscape:window-y="0"
     inkscape:window-maximized="1" />
  <metadata
     id="metadata5294">
    <rdf:RDF>
      <cc:Work
         rdf:about="">
        <dc:format>image/svg+xml</dc:format>
        <dc:type
           rdf:resource="http://purl.org/dc/dcmitype/StillImage" />
        <dc:title></dc:title>
      </cc:Work>
    </rdf:RDF>
  </metadata>
  <g
     inkscape:label="Layer 1"
     inkscape:groupmode="layer"
     id="layer1"
     transform="translate(0,-922.36214)">
    <path
       style="color:#000000;clip-rule:nonzero;display:inline;overflow:visible;visibility:visible;opacity:1;isolation:auto;mix-blend-mode:normal;color-interpolation:sRGB;color-interpolation-filters:linearRGB;solid-color:#000000;solid-opacity:1;fill:#949494;fill-opacity:1;fill-rule:nonzero;stroke:none;stroke-width:1px;stroke-linecap:butt;stroke-linejoin:miter;stroke-miterlimit:4;stroke-dasharray:none;stroke-dashoffset:0;stroke-opacity:1;color-rendering:auto;image-rendering:auto;shape-rendering:auto;text-rendering:auto;enable-background:accumulate"
       d="m 156.40985,928.43434 c -4.0911,0 -7.3848,3.2937 -7.3848,7.3848 l 0,104.73036 c 0,4.0911 3.2937,7.3848 7.3848,7.3848 l 50.7304,0 c 4.0911,0 7.3848,-3.2937 7.3848,-7.3848 l 0,-104.73036 c 0,-4.0911 -3.2937,-7.3848 -7.3848,-7.3848 z m 54.6152,5.3848 0,99.03896 -58.4395,0 0,-99.03896 z m -24.125,106.49016 c 0,2.9685 -2.4065,5.375 -5.375,5.375 -2.9685,0 -5.375,-2.4065 -5.375,-5.375 0.7918,-7.6627 10.578,-5.6575 10.75,0 z"
       id="rect5205"
       inkscape:connector-curvature="0"
       sodipodi:nodetypes="sssssssssccccccscc" />
    <path
       style="color:#000000;clip-rule:nonzero;display:inline;overflow:visible;visibility:visible;opacity:1;isolation:auto;mix-blend-mode:normal;color-interpolation:sRGB;color-interpolation-filters:linearRGB;solid-color:#000000;solid-opacity:1;fill:#949494;fill-opacity:1;fill-rule:nonzero;stroke:none;stroke-width:1px;stroke-linecap:butt;stroke-linejoin:miter;stroke-miterlimit:4;stroke-dasharray:none;stroke-dashoffset:0;stroke-opacity:1;color-rendering:auto;image-rendering:auto;shape-rendering:auto;text-rendering:auto;enable-background:accumulate"
       d="m 9.3668459,927.93434 c -1.5743,0 -2.8418,1.2675 -2.8418,2.8418 l 0,114.09366 c 0,1.5743 1.2675,2.8418 2.8418,2.8418 l 124.3164041,0 c 1.5743,0 2.8418,-1.2675 2.8418,-2.8418 l 0,-114.09366 c 0,-1.5743 -1.2675,-2.8418 -2.8418,-2.8418 z m -0.7207,4.2422 125.4043041,0 0,101.39446 -125.4043041,0 z m 51.5664001,107.19526 25.562502,0 0,2 -25.562502,0 z"
       id="rect5243"
       inkscape:connector-curvature="0"
       sodipodi:nodetypes="ssssssssscccccccccc" />
  </g>
</svg>
