<?xml version="1.0" encoding="UTF-8" standalone="no"?>
<!-- Created with Inkscape (http://www.inkscape.org/) -->

<svg
   xmlns:dc="http://purl.org/dc/elements/1.1/"
   xmlns:cc="http://creativecommons.org/ns#"
   xmlns:rdf="http://www.w3.org/1999/02/22-rdf-syntax-ns#"
   xmlns:svg="http://www.w3.org/2000/svg"
   xmlns="http://www.w3.org/2000/svg"
   xmlns:sodipodi="http://sodipodi.sourceforge.net/DTD/sodipodi-0.dtd"
   xmlns:inkscape="http://www.inkscape.org/namespaces/inkscape"
   width="670"
   height="320"
   viewBox="0 0 670.00001 320"
   id="svg5493"
   version="1.1"
   inkscape:version="0.91 r13725"
   sodipodi:docname="hero.svg">
  <defs
     id="defs5495" />
  <sodipodi:namedview
     id="base"
     pagecolor="#ffffff"
     bordercolor="#666666"
     borderopacity="1.0"
     inkscape:pageopacity="0.0"
     inkscape:pageshadow="2"
     inkscape:zoom="0.98994949"
     inkscape:cx="594.9105"
     inkscape:cy="61.129458"
     inkscape:document-units="px"
     inkscape:current-layer="g4163"
     showgrid="false"
     units="px"
     inkscape:window-width="1920"
     inkscape:window-height="997"
     inkscape:window-x="1920"
     inkscape:window-y="0"
     inkscape:window-maximized="1" />
  <metadata
     id="metadata5498">
    <rdf:RDF>
      <cc:Work
         rdf:about="">
        <dc:format>image/svg+xml</dc:format>
        <dc:type
           rdf:resource="http://purl.org/dc/dcmitype/StillImage" />
        <dc:title />
      </cc:Work>
    </rdf:RDF>
  </metadata>
  <g
     inkscape:label="Layer 1"
     inkscape:groupmode="layer"
     id="layer1"
     transform="translate(0,-732.36212)">
    <path
       inkscape:connector-curvature="0"
       id="path4931"
       d="M 84.923439,915.43491 C 273.92344,727.4349 413.92339,778.4349 586.92339,878.43491"
       style="display:inline;fill:none;fill-rule:evenodd;stroke:#78a4da;stroke-width:50.00000381;stroke-linecap:butt;stroke-linejoin:miter;stroke-miterlimit:4;stroke-dasharray:none;stroke-opacity:1" />
    <rect
       ry="12.000002"
       y="862.43488"
       x="10.291019"
       height="100.18198"
       width="104.52512"
       id="rect4933"
       style="color:#000000;clip-rule:nonzero;display:inline;overflow:visible;visibility:visible;opacity:1;isolation:auto;mix-blend-mode:normal;color-interpolation:sRGB;color-interpolation-filters:linearRGB;solid-color:#000000;solid-opacity:1;fill:#ffffff;fill-opacity:1;fill-rule:evenodd;stroke:none;stroke-width:4.99999952;stroke-linecap:butt;stroke-linejoin:miter;stroke-miterlimit:4;stroke-dasharray:none;stroke-dashoffset:0;stroke-opacity:1;color-rendering:auto;image-rendering:auto;shape-rendering:auto;text-rendering:auto;enable-background:accumulate" />
    <text
       sodipodi:linespacing="125%"
       id="text4935"
       y="884.28448"
       x="19.281622"
       style="font-style:normal;font-variant:normal;font-weight:normal;font-stretch:normal;font-size:18.0381031px;line-height:125%;font-family:monospace;-inkscape-font-specification:monospace;letter-spacing:0px;word-spacing:0px;display:inline;fill:#c0c0c0;fill-opacity:1;stroke:none;stroke-width:1px;stroke-linecap:butt;stroke-linejoin:miter;stroke-opacity:1"
       xml:space="preserve"><tspan
         y="884.28448"
         x="19.281622"
         id="tspan4937"
         sodipodi:role="line">5c4d67cf</tspan><tspan
         id="tspan4939"
         y="906.83209"
         x="19.281622"
         sodipodi:role="line">88fd9c5d</tspan><tspan
         id="tspan4941"
         y="929.37976"
         x="19.281622"
         sodipodi:role="line">bc841dee</tspan><tspan
         id="tspan4943"
         y="951.92737"
         x="19.281622"
         sodipodi:role="line">378b6b4b</tspan></text>
    <rect
       style="color:#000000;clip-rule:nonzero;display:inline;overflow:visible;visibility:visible;opacity:1;isolation:auto;mix-blend-mode:normal;color-interpolation:sRGB;color-interpolation-filters:linearRGB;solid-color:#000000;solid-opacity:1;fill:#ffffff;fill-opacity:1;fill-rule:evenodd;stroke:none;stroke-width:4.99999952;stroke-linecap:butt;stroke-linejoin:miter;stroke-miterlimit:4;stroke-dasharray:none;stroke-dashoffset:0;stroke-opacity:1;color-rendering:auto;image-rendering:auto;shape-rendering:auto;text-rendering:auto;enable-background:accumulate"
       id="rect4945"
       width="104.52512"
       height="100.18198"
       x="271.21341"
       y="744.34796"
       ry="12.000002" />
    <text
       xml:space="preserve"
       style="font-style:normal;font-variant:normal;font-weight:normal;font-stretch:normal;font-size:18.0381031px;line-height:125%;font-family:monospace;-inkscape-font-specification:monospace;letter-spacing:0px;word-spacing:0px;display:inline;fill:#c0c0c0;fill-opacity:1;stroke:none;stroke-width:1px;stroke-linecap:butt;stroke-linejoin:miter;stroke-opacity:1"
       x="280.20401"
       y="766.19757"
       id="text4947"
       sodipodi:linespacing="125%"><tspan
         sodipodi:role="line"
         id="tspan4949"
         x="280.20401"
         y="766.19757">5c4d67cf</tspan><tspan
         sodipodi:role="line"
         x="280.20401"
         y="788.74518"
         id="tspan4951">88fd9c5d</tspan><tspan
         sodipodi:role="line"
         x="280.20401"
         y="811.29285"
         id="tspan4953">bc841dee</tspan><tspan
         sodipodi:role="line"
         x="280.20401"
         y="833.84045"
         id="tspan4955">378b6b4b</tspan></text>
    <rect
       ry="12.000002"
       y="828.49396"
       x="553.34924"
       height="100.18198"
       width="104.52512"
       id="rect4957"
       style="color:#000000;clip-rule:nonzero;display:inline;overflow:visible;visibility:visible;opacity:1;isolation:auto;mix-blend-mode:normal;color-interpolation:sRGB;color-interpolation-filters:linearRGB;solid-color:#000000;solid-opacity:1;fill:#ffffff;fill-opacity:1;fill-rule:evenodd;stroke:none;stroke-width:4.99999952;stroke-linecap:butt;stroke-linejoin:miter;stroke-miterlimit:4;stroke-dasharray:none;stroke-dashoffset:0;stroke-opacity:1;color-rendering:auto;image-rendering:auto;shape-rendering:auto;text-rendering:auto;enable-background:accumulate" />
    <text
       sodipodi:linespacing="125%"
       id="text4959"
       y="850.34357"
       x="562.33984"
       style="font-style:normal;font-variant:normal;font-weight:normal;font-stretch:normal;font-size:18.0381031px;line-height:125%;font-family:monospace;-inkscape-font-specification:monospace;letter-spacing:0px;word-spacing:0px;display:inline;fill:#c0c0c0;fill-opacity:1;stroke:none;stroke-width:1px;stroke-linecap:butt;stroke-linejoin:miter;stroke-opacity:1"
       xml:space="preserve"><tspan
         y="850.34357"
         x="562.33984"
         id="tspan4961"
         sodipodi:role="line">5c4d67cf</tspan><tspan
         id="tspan4963"
         y="872.89117"
         x="562.33984"
         sodipodi:role="line">88fd9c5d</tspan><tspan
         id="tspan4965"
         y="895.43884"
         x="562.33984"
         sodipodi:role="line">bc841dee</tspan><tspan
         id="tspan4967"
         y="917.98645"
         x="562.33984"
         sodipodi:role="line">378b6b4b</tspan></text>
    <path
       style="display:inline;fill:none;fill-rule:evenodd;stroke:#ffffff;stroke-width:6.00000048;stroke-linecap:round;stroke-linejoin:miter;stroke-miterlimit:4;stroke-dasharray:none;stroke-opacity:1"
       d="M 234.52321,976.72081 C 220.05874,906.47373 136.98426,928.22157 136.98426,928.22157"
       id="path4996"
       inkscape:connector-curvature="0"
       sodipodi:nodetypes="cc" />
    <path
       style="color:#000000;clip-rule:nonzero;display:inline;overflow:visible;visibility:visible;opacity:1;isolation:auto;mix-blend-mode:normal;color-interpolation:sRGB;color-interpolation-filters:linearRGB;solid-color:#000000;solid-opacity:1;fill:none;fill-opacity:1;fill-rule:evenodd;stroke:#ffffff;stroke-width:6.00000048;stroke-linecap:round;stroke-linejoin:miter;stroke-miterlimit:4;stroke-dasharray:none;stroke-dashoffset:0;stroke-opacity:1;color-rendering:auto;image-rendering:auto;shape-rendering:auto;text-rendering:auto;enable-background:accumulate"
       d="m 137.11705,927.55022 c 12.72792,-9.54594 21.21321,-22.09709 21.21321,-22.09709"
       id="path4998"
       inkscape:connector-curvature="0"
       sodipodi:nodetypes="cc" />
    <path
       style="color:#000000;clip-rule:nonzero;display:inline;overflow:visible;visibility:visible;opacity:1;isolation:auto;mix-blend-mode:normal;color-interpolation:sRGB;color-interpolation-filters:linearRGB;solid-color:#000000;solid-opacity:1;fill:none;fill-opacity:1;fill-rule:evenodd;stroke:#ffffff;stroke-width:6.00000048;stroke-linecap:round;stroke-linejoin:miter;stroke-miterlimit:4;stroke-dasharray:none;stroke-dashoffset:0;stroke-opacity:1;color-rendering:auto;image-rendering:auto;shape-rendering:auto;text-rendering:auto;enable-background:accumulate"
       d="m 519.00069,975.85321 c -2.7968,-74.15471 -28.3063,-123.5303 -60.3425,-162.60211"
       id="path5030"
       inkscape:connector-curvature="0"
       sodipodi:nodetypes="cc" />
    <path
       style="color:#000000;clip-rule:nonzero;display:inline;overflow:visible;visibility:visible;opacity:1;isolation:auto;mix-blend-mode:normal;color-interpolation:sRGB;color-interpolation-filters:linearRGB;solid-color:#000000;solid-opacity:1;fill:none;fill-opacity:1;fill-rule:evenodd;stroke:#ffffff;stroke-width:6.00000048;stroke-linecap:round;stroke-linejoin:miter;stroke-miterlimit:4;stroke-dasharray:none;stroke-dashoffset:0;stroke-opacity:1;color-rendering:auto;image-rendering:auto;shape-rendering:auto;text-rendering:auto;enable-background:accumulate"
       d="m 458.60179,813.01615 c 20.0551,7.81193 32.0866,2.78717 32.0866,2.78717"
       id="path5046"
       inkscape:connector-curvature="0"
       sodipodi:nodetypes="cc" />
    <path
       style="color:#000000;clip-rule:nonzero;display:inline;overflow:visible;visibility:visible;opacity:1;isolation:auto;mix-blend-mode:normal;color-interpolation:sRGB;color-interpolation-filters:linearRGB;solid-color:#000000;solid-opacity:1;fill:none;fill-opacity:1;fill-rule:evenodd;stroke:#ffffff;stroke-width:6.00000048;stroke-linecap:round;stroke-linejoin:miter;stroke-miterlimit:4;stroke-dasharray:none;stroke-dashoffset:0;stroke-opacity:1;color-rendering:auto;image-rendering:auto;shape-rendering:auto;text-rendering:auto;enable-background:accumulate"
       d="m 137.11706,928.25745 c 16.26345,10.6065 21.56675,22.097 21.56675,22.097"
       id="path5014"
       inkscape:connector-curvature="0"
       sodipodi:nodetypes="cc" />
    <path
       style="color:#000000;clip-rule:nonzero;display:inline;overflow:visible;visibility:visible;opacity:1;isolation:auto;mix-blend-mode:normal;color-interpolation:sRGB;color-interpolation-filters:linearRGB;solid-color:#000000;solid-opacity:1;fill:none;fill-opacity:1;fill-rule:evenodd;stroke:#ffffff;stroke-width:6.00000048;stroke-linecap:round;stroke-linejoin:miter;stroke-miterlimit:4;stroke-dasharray:none;stroke-dashoffset:0;stroke-opacity:1;color-rendering:auto;image-rendering:auto;shape-rendering:auto;text-rendering:auto;enable-background:accumulate"
       d="m 458.60989,813.2767 c 3.7891,19.63565 0.86,29.59785 0.86,29.59785"
       id="path5068"
       inkscape:connector-curvature="0"
       sodipodi:nodetypes="cc" />
  </g>
  <g
     inkscape:groupmode="layer"
     id="layer2"
     inkscape:label="Nodes and Links"
     style="display:none">
    <text
       transform="translate(0,-732.36212)"
       xml:space="preserve"
       style="font-style:normal;font-variant:normal;font-weight:normal;font-stretch:normal;font-size:65.11645508px;line-height:125%;font-family:'Titillium Web';-inkscape-font-specification:'Titillium Web';letter-spacing:0px;word-spacing:0px;display:inline;fill:#ffffff;fill-opacity:1;stroke:none;stroke-width:1px;stroke-linecap:butt;stroke-linejoin:miter;stroke-opacity:1"
       x="143.21846"
       y="1040.1313"
       id="text4988"
       sodipodi:linespacing="125%"><tspan
         sodipodi:role="line"
         id="tspan4990"
         x="143.21846"
         y="1040.1313">Nodes and Links</tspan></text>
  </g>
  <g
     inkscape:label="Nodes and Links (as path)"
     id="g4163"
     inkscape:groupmode="layer">
    <g
       transform="translate(0,-732.36212)"
       style="font-style:normal;font-variant:normal;font-weight:normal;font-stretch:normal;font-size:65.11645508px;line-height:125%;font-family:'Titillium Web';-inkscape-font-specification:'Titillium Web';letter-spacing:0px;word-spacing:0px;display:inline;fill:#ffffff;fill-opacity:1;stroke:none;stroke-width:1px;stroke-linecap:butt;stroke-linejoin:miter;stroke-opacity:1"
       id="text4165">
      <path
         d="m 148.75336,1040.1313 0,-45.06054 9.37677,0 17.25586,40.63264 1.36744,0 0,-40.63264 4.94886,0 0,45.06054 -9.18143,0 -17.51632,-40.63262 -1.23721,0 0,40.63262 -5.01397,0 z"
         style=""
         id="path4170" />
      <path
         d="m 190.09722,1023.7871 q 0,-8.9209 3.19071,-12.893 3.1907,-3.9721 10.74421,-3.9721 7.61863,0 10.74422,3.9721 3.1907,3.9721 3.1907,12.893 0,8.921 -2.99536,12.9582 -2.99535,4.0372 -10.93956,4.0372 -7.94421,0 -10.93956,-4.0372 -2.99536,-4.0372 -2.99536,-12.9582 z m 5.01397,-0.065 q 0,7.0977 1.69302,9.9628 1.75815,2.8651 7.22793,2.8651 5.5349,0 7.22793,-2.8 1.69302,-2.8651 1.69302,-10.0279 0,-7.1628 -1.88837,-9.8326 -1.88838,-2.7349 -7.03258,-2.7349 -5.07908,0 -7.03258,2.7349 -1.88837,2.6698 -1.88837,9.8326 z"
         style=""
         id="path4172" />
      <path
         d="m 250.87326,993.37773 0,46.75357 -4.81862,0 0,-2.2139 q -5.01397,2.8651 -9.8977,2.8651 -2.60466,0 -4.55815,-0.6512 -1.9535,-0.6511 -3.64653,-2.3441 -3.51628,-3.5163 -3.51628,-12.9582 0,-9.507 3.12559,-13.6745 3.1907,-4.2325 10.48374,-4.2325 3.77676,0 8.00933,0.8465 l 0,-14.39077 4.81862,0 z m -19.14424,40.89317 q 1.04186,1.2372 2.21396,1.693 1.17209,0.4558 2.99536,0.4558 1.88837,0 4.16745,-0.586 2.34419,-0.6512 3.64652,-1.2373 l 1.30233,-0.586 0,-22.0745 q -4.16745,-0.7814 -7.74886,-0.7814 -4.94885,0 -6.90234,3.1907 -1.9535,3.1256 -1.9535,9.7675 0,7.5535 2.27908,10.1582 z"
         style=""
         id="path4174" />
      <path
         d="m 282.47407,1036.0941 1.88837,-0.1953 0.13024,3.8418 q -7.42328,1.0419 -12.69771,1.0419 -7.03258,0 -9.96282,-4.0372 -2.93024,-4.1023 -2.93024,-12.6977 0,-17.1256 13.60934,-17.1256 6.57676,0 9.83258,3.7116 3.25583,3.6465 3.25583,11.5256 l -0.26047,3.7116 -21.48843,0 q 0,5.4047 1.95349,8.0094 1.9535,2.6046 6.77212,2.6046 4.88373,0 9.8977,-0.3907 z m -1.75815,-14.1302 q 0,-5.9908 -1.95349,-8.4652 -1.88838,-2.4744 -6.25118,-2.4744 -4.29769,0 -6.51165,2.6047 -2.14884,2.6046 -2.21396,8.3349 l 16.93028,0 z"
         style=""
         id="path4176" />
      <path
         d="m 303.49753,1011.2848 q -7.09769,0 -7.09769,4.9488 0,2.2791 1.62791,3.2558 1.62791,0.9117 7.42327,1.9535 5.79537,0.9768 8.20468,2.8 2.40931,1.8233 2.40931,6.8373 0,5.0139 -3.25583,7.3581 -3.1907,2.3442 -9.37677,2.3442 -4.03722,0 -9.507,-0.9116 l -1.95349,-0.3256 0.26046,-4.2326 q 7.42328,1.107 11.20003,1.107 3.77676,0 5.73025,-1.1721 2.01861,-1.2372 2.01861,-4.0372 0,-2.8651 -1.69303,-3.8419 -1.69302,-1.0418 -7.42327,-1.9535 -5.73025,-0.9116 -8.13956,-2.6697 -2.40931,-1.7582 -2.40931,-6.5117 0,-4.7535 3.32094,-7.0326 3.38606,-2.279 8.40002,-2.279 3.97211,0 9.96282,0.9116 l 1.82326,0.3256 -0.13023,4.1674 q -7.22793,-1.0418 -11.39538,-1.0418 z"
         style=""
         id="path4178" />
      <path
         d="m 360.90074,1017.4057 0,16.6698 q 0.19534,2.4093 3.77675,2.8651 l -0.19535,3.8419 q -5.1442,0 -7.74886,-2.6046 -5.86048,2.6046 -11.72096,2.6046 -4.49303,0 -6.83723,-2.5395 -2.34419,-2.5396 -2.34419,-7.2931 0,-4.7535 2.40931,-6.9674 2.40931,-2.2791 7.55351,-2.8 l 10.22328,-0.9768 0,-2.8 q 0,-3.3209 -1.43256,-4.7535 -1.43256,-1.4326 -3.90699,-1.4326 -5.20931,0 -10.80933,0.6512 l -2.01861,0.1954 -0.19535,-3.7117 q 7.16281,-1.4325 12.69771,-1.4325 5.5349,0 8.00932,2.5395 2.53955,2.5395 2.53955,7.9442 z m -20.05587,13.2838 q 0,5.9907 4.94885,5.9907 4.42792,0 8.7256,-1.4977 l 1.49768,-0.5209 0,-10.7442 -9.63723,0.9116 q -2.93024,0.2604 -4.23257,1.693 -1.30233,1.4326 -1.30233,4.1675 z"
         style=""
         id="path4180" />
      <path
         d="m 375.48377,1040.1313 -4.88373,0 0,-32.5582 4.81861,0 0,2.2791 q 5.27444,-2.9302 10.09305,-2.9302 6.51165,0 8.72561,3.5162 2.27908,3.5163 2.27908,12.5024 l 0,17.1907 -4.81862,0 0,-17.0605 q 0,-6.7721 -1.36745,-9.2465 -1.30233,-2.5395 -5.66513,-2.5395 -2.08373,0 -4.42792,0.6511 -2.27907,0.5861 -3.51629,1.1721 l -1.23721,0.5861 0,26.4372 z"
         style=""
         id="path4182" />
      <path
         d="m 430.57941,993.37773 0,46.75357 -4.81862,0 0,-2.2139 q -5.01396,2.8651 -9.8977,2.8651 -2.60466,0 -4.55815,-0.6512 -1.95349,-0.6511 -3.64652,-2.3441 -3.51629,-3.5163 -3.51629,-12.9582 0,-9.507 3.12559,-13.6745 3.19071,-4.2325 10.48375,-4.2325 3.77675,0 8.00932,0.8465 l 0,-14.39077 4.81862,0 z m -19.14424,40.89317 q 1.04187,1.2372 2.21396,1.693 1.1721,0.4558 2.99536,0.4558 1.88838,0 4.16745,-0.586 2.34419,-0.6512 3.64652,-1.2373 l 1.30233,-0.586 0,-22.0745 q -4.16745,-0.7814 -7.74886,-0.7814 -4.94885,0 -6.90234,3.1907 -1.95349,3.1256 -1.95349,9.7675 0,7.5535 2.27907,10.1582 z"
         style=""
         id="path4184" />
      <path
         d="m 480.06792,1040.1313 -24.80937,0 0,-45.06054 5.01396,0 0,40.56754 19.79541,0 0,4.493 z"
         style=""
         id="path4186" />
      <path
         d="m 485.57127,1040.1313 0,-32.5582 4.88374,0 0,32.5582 -4.88374,0 z m 0,-39.9163 0,-5.66517 4.88374,0 0,5.66517 -4.88374,0 z"
         style=""
         id="path4188" />
      <path
         d="m 504.69924,1040.1313 -4.88373,0 0,-32.5582 4.81861,0 0,2.2791 q 5.27444,-2.9302 10.09305,-2.9302 6.51165,0 8.72561,3.5162 2.27907,3.5163 2.27907,12.5024 l 0,17.1907 -4.81861,0 0,-17.0605 q 0,-6.7721 -1.36745,-9.2465 -1.30233,-2.5395 -5.66513,-2.5395 -2.08373,0 -4.42792,0.6511 -2.27907,0.5861 -3.51629,1.1721 l -1.23721,0.5861 0,26.4372 z"
         style=""
         id="path4190" />
      <path
         d="m 539.67388,1040.1313 -4.88373,0 0,-46.75357 4.88373,0 0,27.60937 5.07908,-0.2605 9.31166,-13.1535 5.5349,0 -10.61399,14.9768 11.0698,17.5814 -5.5349,0 -9.70235,-15.107 -5.1442,0.1954 0,14.9116 z"
         style=""
         id="path4192" />
      <path
         d="m 576.17267,1011.2848 q -7.09769,0 -7.09769,4.9488 0,2.2791 1.62791,3.2558 1.62791,0.9117 7.42327,1.9535 5.79537,0.9768 8.20468,2.8 2.40931,1.8233 2.40931,6.8373 0,5.0139 -3.25583,7.3581 -3.1907,2.3442 -9.37677,2.3442 -4.03722,0 -9.507,-0.9116 l -1.95349,-0.3256 0.26046,-4.2326 q 7.42328,1.107 11.20003,1.107 3.77676,0 5.73025,-1.1721 2.01861,-1.2372 2.01861,-4.0372 0,-2.8651 -1.69303,-3.8419 -1.69302,-1.0418 -7.42327,-1.9535 -5.73025,-0.9116 -8.13956,-2.6697 -2.40931,-1.7582 -2.40931,-6.5117 0,-4.7535 3.32094,-7.0326 3.38606,-2.279 8.40002,-2.279 3.97211,0 9.96282,0.9116 l 1.82326,0.3256 -0.13023,4.1674 q -7.22793,-1.0418 -11.39538,-1.0418 z"
         style=""
         id="path4194" />
    </g>
  </g>
</svg>
