<?xml version="1.0" encoding="UTF-8" standalone="no"?>
<!-- Created with Inkscape (http://www.inkscape.org/) -->

<svg
   xmlns:dc="http://purl.org/dc/elements/1.1/"
   xmlns:cc="http://creativecommons.org/ns#"
   xmlns:rdf="http://www.w3.org/1999/02/22-rdf-syntax-ns#"
   xmlns:svg="http://www.w3.org/2000/svg"
   xmlns="http://www.w3.org/2000/svg"
   xmlns:xlink="http://www.w3.org/1999/xlink"
   xmlns:sodipodi="http://sodipodi.sourceforge.net/DTD/sodipodi-0.dtd"
   xmlns:inkscape="http://www.inkscape.org/namespaces/inkscape"
   width="550"
   height="640"
   viewBox="0 0 550 640"
   id="svg4785"
   version="1.1"
   inkscape:version="0.91 r13725"
   sodipodi:docname="logo.svg">
  <defs
     id="defs4787">
    <linearGradient
       inkscape:collect="always"
       xlink:href="#linearGradient5453"
       id="linearGradient5459"
       x1="695.28052"
       y1="989.13745"
       x2="688.97211"
       y2="1043.7804"
       gradientUnits="userSpaceOnUse"
       gradientTransform="matrix(0.85740374,0,0,0.85740374,-201.41213,131.88073)" />
    <linearGradient
       inkscape:collect="always"
       id="linearGradient5453">
      <stop
         style="stop-color:#858585;stop-opacity:1;"
         offset="0"
         id="stop5455" />
      <stop
         style="stop-color:#858585;stop-opacity:0;"
         offset="1"
         id="stop5457" />
    </linearGradient>
    <linearGradient
       inkscape:collect="always"
       xlink:href="#linearGradient5453"
       id="linearGradient5419"
       x1="770.7533"
       y1="942.4328"
       x2="823.20703"
       y2="950.58582"
       gradientUnits="userSpaceOnUse"
       gradientTransform="matrix(0.85740374,0,0,0.85740374,-199.97074,131.88073)" />
    <linearGradient
       inkscape:collect="always"
       xlink:href="#linearGradient5453"
       id="linearGradient5475"
       x1="735.60535"
       y1="946.448"
       x2="804.23022"
       y2="955.53943"
       gradientUnits="userSpaceOnUse"
       gradientTransform="matrix(0.85740374,0,0,0.85740374,-199.97074,131.88073)" />
    <linearGradient
       inkscape:collect="always"
       xlink:href="#linearGradient5453"
       id="linearGradient5427"
       x1="611.44324"
       y1="984.84845"
       x2="699.52911"
       y2="1086.3688"
       gradientUnits="userSpaceOnUse"
       gradientTransform="matrix(0.85740374,0,0,0.85740374,-201.41213,131.88073)" />
    <linearGradient
       inkscape:collect="always"
       xlink:href="#linearGradient5453"
       id="linearGradient5443"
       x1="557.14746"
       y1="978.36127"
       x2="448.87775"
       y2="1070.2852"
       gradientUnits="userSpaceOnUse"
       gradientTransform="matrix(0.85740374,0,0,0.85740374,-201.41213,131.88073)" />
    <linearGradient
       inkscape:collect="always"
       xlink:href="#linearGradient5453"
       id="linearGradient5467"
       x1="469.60452"
       y1="970.27112"
       x2="573.97668"
       y2="834.4057"
       gradientUnits="userSpaceOnUse"
       gradientTransform="matrix(0.85740374,0,0,0.85740374,-201.41213,131.88073)" />
    <linearGradient
       inkscape:collect="always"
       xlink:href="#linearGradient5453"
       id="linearGradient5451"
       x1="378.53952"
       y1="929.40808"
       x2="98.386131"
       y2="897.23547"
       gradientUnits="userSpaceOnUse"
       gradientTransform="matrix(0.85740374,0,0,0.85740374,-201.41213,131.88073)" />
    <linearGradient
       inkscape:collect="always"
       xlink:href="#linearGradient5453"
       id="linearGradient5435"
       x1="421.43542"
       y1="966.2348"
       x2="517.79858"
       y2="941.99115"
       gradientUnits="userSpaceOnUse"
       gradientTransform="matrix(0.85740374,0,0,0.85740374,-201.41213,131.88073)" />
  </defs>
  <sodipodi:namedview
     id="base"
     pagecolor="#ffffff"
     bordercolor="#666666"
     borderopacity="1.0"
     inkscape:pageopacity="0.0"
     inkscape:pageshadow="2"
     inkscape:zoom="2"
     inkscape:cx="362.24556"
     inkscape:cy="141.37334"
     inkscape:document-units="px"
     inkscape:current-layer="g4202"
     showgrid="false"
     units="px"
     inkscape:window-width="1920"
     inkscape:window-height="997"
     inkscape:window-x="1920"
     inkscape:window-y="0"
     inkscape:window-maximized="1"
     showguides="true"
     inkscape:guide-bbox="true" />
  <metadata
     id="metadata4790">
    <rdf:RDF>
      <cc:Work
         rdf:about="">
        <dc:format>image/svg+xml</dc:format>
        <dc:type
           rdf:resource="http://purl.org/dc/dcmitype/StillImage" />
        <dc:title></dc:title>
      </cc:Work>
    </rdf:RDF>
  </metadata>
  <g
     inkscape:label="Layer 1"
     inkscape:groupmode="layer"
     id="layer1"
     transform="translate(0,-412.36216)">
    <path
       sodipodi:nodetypes="ccssccssc"
       inkscape:connector-curvature="0"
       id="path4440"
       d="m 172.57189,801.74092 26.65917,-8.6742 c 0,0 -5.58991,-42.7814 -2.08442,-91.5962 2.14317,-29.8438 8.14586,-61.86382 19.5083,-88.53341 29.94766,-70.29238 54.62064,13.50511 54.62064,13.50511 l 26.33502,-8.32816 c 0,0 -31.72999,-101.03254 -89.69172,-43.87135 -15.19985,14.98994 -32.85549,66.9941 -36.91859,111.55971 -5.39452,59.1692 1.5716,115.9385 1.5716,115.9385 z"
       style="display:inline;fill:#333f4f;fill-opacity:0;fill-rule:evenodd;stroke:none;stroke-width:1px;stroke-linecap:butt;stroke-linejoin:miter;stroke-opacity:1" />
    <path
       sodipodi:nodetypes="ccsssccsssc"
       inkscape:connector-curvature="0"
       id="path4442"
       d="m 154.16247,743.91312 0.21222,-36.0761 c 0,0 -88.226699,66.4111 -70.670059,114.27917 17.556649,47.8681 124.451279,33.5618 238.323369,-49.99457 91.5581,-67.1831 92.2074,-125.1279 58.8222,-139.28912 -25.5394,-10.83317 -52.3411,-5.30249 -52.3411,-5.30249 -4.0751,8.46361 -7.5514,16.41731 -8.0372,27.07415 0,0 37.9009,-9.73211 50.7414,5.37574 15.9384,18.75292 -41.3718,78.03192 -99.63758,113.51792 -65.23875,39.73277 -142.79052,61.30997 -160.55855,41.67937 -16.254679,-17.95857 43.1453,-71.26407 43.1453,-71.26407 z"
       style="display:inline;fill:#333f4f;fill-opacity:1;fill-rule:evenodd;stroke:none;stroke-width:1px;stroke-linecap:butt;stroke-linejoin:miter;stroke-opacity:1" />
    <path
       sodipodi:nodetypes="cccccsccssc"
       inkscape:connector-curvature="0"
       id="path4444"
       d="m 172.51781,802.01862 26.65918,-8.6742 c 0,0 -2.46655,-13.2382 -3.32084,-37.2914 l -18.90215,-11.0254 19.28971,-40.3084 c 2.14316,-29.8438 8.99471,-64.83486 20.35715,-91.50446 29.94767,-70.29237 55.38157,12.52756 55.38157,12.52756 5.94082,-4.18788 15.38497,-14.0586 20.17457,-23.99106 0,0 -26.06208,-84.11862 -84.2922,-27.2309 -19.94985,19.48994 -32.85549,66.99411 -36.9186,111.55976 -5.39451,59.1691 1.57161,115.9385 1.57161,115.9385 z"
       style="color:#000000;clip-rule:nonzero;display:inline;overflow:visible;visibility:visible;opacity:1;isolation:auto;mix-blend-mode:normal;color-interpolation:sRGB;color-interpolation-filters:linearRGB;solid-color:#000000;solid-opacity:1;fill:#333f4f;fill-opacity:1;fill-rule:evenodd;stroke:none;stroke-width:1px;stroke-linecap:butt;stroke-linejoin:miter;stroke-miterlimit:4;stroke-dasharray:none;stroke-dashoffset:0;stroke-opacity:1;color-rendering:auto;image-rendering:auto;shape-rendering:auto;text-rendering:auto;enable-background:accumulate" />
    <path
       sodipodi:nodetypes="ccsccsc"
       inkscape:connector-curvature="0"
       id="path4446"
       d="m 321.3946,819.56529 -6.1898,26.9727 c 0,0 59.5689,15.7597 79.7175,-16.3187 22.5187,-35.85167 -23.1087,-81.78097 -23.1087,-81.78097 l -20.4077,18.9072 c 0,0 28.8802,31.5723 20.7077,46.51757 -7.7867,14.24 -50.719,5.7022 -50.719,5.7022 z"
       style="color:#000000;clip-rule:nonzero;display:inline;overflow:visible;visibility:visible;opacity:1;isolation:auto;mix-blend-mode:normal;color-interpolation:sRGB;color-interpolation-filters:linearRGB;solid-color:#000000;solid-opacity:1;fill:#333f4f;fill-opacity:1;fill-rule:evenodd;stroke:none;stroke-width:0.5;stroke-linecap:butt;stroke-linejoin:miter;stroke-miterlimit:4;stroke-dasharray:none;stroke-dashoffset:0;stroke-opacity:1;color-rendering:auto;image-rendering:auto;shape-rendering:auto;text-rendering:auto;enable-background:accumulate" />
    <path
       sodipodi:nodetypes="ccsccsc"
       inkscape:connector-curvature="0"
       id="path4448"
       d="m 310.4404,798.55732 -31.06173,19.24477 c 0,0 -11.60236,67.1975 -37.36415,73.0401 -15.76511,3.5754 -30.61157,-41.9098 -30.61157,-41.9098 l -26.41,8.4472 c 0,0 20.10236,64.9211 59.57253,61.0731 53.87032,-5.252 65.87492,-119.89537 65.87492,-119.89537 z"
       style="color:#000000;clip-rule:nonzero;display:inline;overflow:visible;visibility:visible;opacity:1;isolation:auto;mix-blend-mode:normal;color-interpolation:sRGB;color-interpolation-filters:linearRGB;solid-color:#000000;solid-opacity:1;fill:#333f4f;fill-opacity:1;fill-rule:evenodd;stroke:none;stroke-width:0.5;stroke-linecap:butt;stroke-linejoin:miter;stroke-miterlimit:4;stroke-dasharray:none;stroke-dashoffset:0;stroke-opacity:1;color-rendering:auto;image-rendering:auto;shape-rendering:auto;text-rendering:auto;enable-background:accumulate" />
    <path
       sodipodi:nodetypes="ccsccsc"
       inkscape:connector-curvature="0"
       id="path4450"
       d="m 167.28625,628.54301 -6.00227,27.16027 c 0,0 -45.91737,-9.15346 -51.61953,7.05266 -5.38721,15.31098 21.30805,45.31718 21.30805,45.31718 l -20.1076,18.9071 c 0,0 -44.700279,-47.0356 -23.108719,-81.63085 18.628569,-29.84786 79.530069,-16.80636 79.530069,-16.80636 z"
       style="color:#000000;clip-rule:nonzero;display:inline;overflow:visible;visibility:visible;opacity:1;isolation:auto;mix-blend-mode:normal;color-interpolation:sRGB;color-interpolation-filters:linearRGB;solid-color:#000000;solid-opacity:1;fill:#333f4f;fill-opacity:1;fill-rule:evenodd;stroke:none;stroke-width:1px;stroke-linecap:butt;stroke-linejoin:miter;stroke-miterlimit:4;stroke-dasharray:none;stroke-dashoffset:0;stroke-opacity:1;color-rendering:auto;image-rendering:auto;shape-rendering:auto;text-rendering:auto;enable-background:accumulate" />
    <path
       sodipodi:nodetypes="zzssssssssccssssccssssccsszz"
       inkscape:connector-curvature="0"
       id="path4436"
       d="m 421.9661,423.31759 c -25.7621,-14.87382 -36.0552,35.34278 -66.4022,87.90519 -30.3469,52.56244 -59.2575,110.71767 -79.12773,119.96264 -22.4025,10.42312 -38.73922,15.86459 -53.22715,40.9584 -13.11366,22.7135 -40.51577,70.2551 -38.29261,71.5387 l 6.25755,3.6128 c 3.54406,2.0461 17.13034,-22.9041 26.81989,-38.3102 13.61075,-21.6406 18.92315,-32.091 25.51723,-34.3956 0.96995,-0.339 4.43952,1.7127 4.61837,2.6665 1.25993,6.717 -5.76696,16.2996 -18.54031,38.4237 -9.77923,16.9381 -21.85534,37.4899 -20.95737,41.6948 l 7.48538,4.3217 c 3.95471,-1.1558 12.01443,-17.7336 24.62569,-39.5769 12.77335,-22.1241 18.62349,-32.3861 25.17157,-34.5952 0.96603,-0.3259 4.97637,2.1141 5.26556,3.0401 2.28248,7.3074 -4.89581,16.8026 -17.6692,38.9267 -12.65307,21.9158 -21.97751,38.1148 -20.94335,41.7029 l 6.9846,4.0326 c 3.18214,-0.2781 14.01194,-18.1373 25.94907,-38.8129 10.89033,-18.8627 18.19251,-32.635 24.71601,-34.8582 0.842,-0.287 4.782,2.1947 4.9212,2.7438 1.8109,7.1326 -4.2657,17.2638 -17.03904,39.3879 -7.46452,12.929 -17.37152,30.0191 -17.37152,30.0191 l 23.99116,-14.4669 c 0,0 17.2777,-28.6333 22.8956,-38.3639 14.5742,-25.2433 5.6447,-43.9123 5.3565,-68.59647 -0.2427,-20.78594 34.9292,-74.56031 65.6386,-127.75061 30.7095,-53.19029 69.1188,-86.33682 43.3565,-101.21065 z"
       style="color:#000000;clip-rule:nonzero;display:inline;overflow:visible;visibility:visible;opacity:1;isolation:auto;mix-blend-mode:normal;color-interpolation:sRGB;color-interpolation-filters:linearRGB;solid-color:#000000;solid-opacity:1;fill:#333f4f;fill-opacity:1;fill-rule:evenodd;stroke:none;stroke-width:1px;stroke-linecap:butt;stroke-linejoin:miter;stroke-miterlimit:4;stroke-dasharray:none;stroke-dashoffset:0;stroke-opacity:1;color-rendering:auto;image-rendering:auto;shape-rendering:auto;text-rendering:auto;enable-background:accumulate" />
    <path
       sodipodi:nodetypes="sccsczcczccscczcsc"
       inkscape:connector-curvature="0"
       id="path5254"
       d="m 172.00844,939.81459 c -3.89767,0 -4.83678,1.6163 -4.83678,1.6163 l 0,2.5149 c 0,0 -3.91439,-4.1243 -14.42626,-4.1243 -11.85069,0 -24.42032,11.1103 -24.42032,28.0463 -0.38506,14.338 10.60361,26.7215 23.57776,26.8338 12.97414,0.1123 14.18309,-4.1285 14.18309,-4.1285 l 0,2.5461 c 0,0 2.01292,1.5922 6.00491,1.5922 3.99206,0 5.93442,-1.5922 5.93442,-1.5922 l 0,-51.6883 c 0,0 -1.61817,-1.6163 -6.01682,-1.6163 z m -4.83541,18.2795 0,18.845 c 0,0 -4.04918,7.6869 -13.71101,7.6869 -9.66183,0 -13.96471,-9.6839 -13.94241,-17.5331 0,-8.7866 5.48566,-15.7443 12.63984,-15.7443 10.07887,0 15.01358,6.7455 15.01358,6.7455 z"
       style="color:#000000;font-style:normal;font-variant:normal;font-weight:normal;font-stretch:normal;font-size:medium;line-height:normal;font-family:sans-serif;text-indent:0;text-align:start;text-decoration:none;text-decoration-line:none;text-decoration-style:solid;text-decoration-color:#000000;letter-spacing:normal;word-spacing:normal;text-transform:none;direction:ltr;block-progression:tb;writing-mode:lr-tb;baseline-shift:baseline;text-anchor:start;white-space:normal;clip-rule:nonzero;display:inline;overflow:visible;visibility:visible;opacity:1;isolation:auto;mix-blend-mode:normal;color-interpolation:sRGB;color-interpolation-filters:linearRGB;solid-color:#000000;solid-opacity:1;fill:url(#linearGradient5435);fill-opacity:1;fill-rule:evenodd;stroke:none;stroke-width:18;stroke-linecap:round;stroke-linejoin:miter;stroke-miterlimit:4;stroke-dasharray:none;stroke-dashoffset:0;stroke-opacity:1;color-rendering:auto;image-rendering:auto;shape-rendering:auto;text-rendering:auto;enable-background:accumulate" />
    <path
       sodipodi:nodetypes="zccczcczcccz"
       inkscape:connector-curvature="0"
       id="path5256"
       d="m 63.638501,893.99649 c -4.22649,3.4935 -3.86852,7.0876 -3.86852,7.0876 l 41.640339,50.5643 -33.185909,70.91161 c 0,0 0.10529,2.5002 5.50222,5.1686 5.39693,2.6682 8.47586,1.3725 8.47586,1.3725 L 143.54152,898.11069 c 0,0 -1.16274,-3.6979 -5.3749,-5.6871 -4.21216,-1.9892 -8.6031,-0.854 -8.6031,-0.854 l -20.91551,44.6121 -36.983179,-44.9326 c 0,0 -3.79984,-0.7462 -8.02633,2.7474 z"
       style="color:#000000;font-style:normal;font-variant:normal;font-weight:normal;font-stretch:normal;font-size:medium;line-height:normal;font-family:sans-serif;text-indent:0;text-align:start;text-decoration:none;text-decoration-line:none;text-decoration-style:solid;text-decoration-color:#000000;letter-spacing:normal;word-spacing:normal;text-transform:none;direction:ltr;block-progression:tb;writing-mode:lr-tb;baseline-shift:baseline;text-anchor:start;white-space:normal;clip-rule:nonzero;display:inline;overflow:visible;visibility:visible;opacity:1;isolation:auto;mix-blend-mode:normal;color-interpolation:sRGB;color-interpolation-filters:linearRGB;solid-color:#000000;solid-opacity:1;fill:url(#linearGradient5451);fill-opacity:1;fill-rule:evenodd;stroke:none;stroke-width:18;stroke-linecap:round;stroke-linejoin:miter;stroke-miterlimit:4;stroke-dasharray:none;stroke-dashoffset:0;stroke-opacity:1;color-rendering:auto;image-rendering:auto;shape-rendering:auto;text-rendering:auto;enable-background:accumulate" />
    <path
       sodipodi:nodetypes="zcczcssczcscz"
       inkscape:connector-curvature="0"
       id="path5258"
       d="m 193.19858,939.80459 c -3.73237,0 -5.39471,1.6308 -5.39471,1.6308 l 0,51.6409 c 0,0 1.66534,1.6639 5.87614,1.6639 4.21087,0 5.87621,-1.6639 5.87621,-1.6639 0,0 0,-19.4484 0,-29.3864 0,-4.139 0.21272,-8.1681 5.39419,-11.1842 6.74356,-3.9253 13.10259,-1.3987 17.87421,4.3273 0,0 2.31953,0.8285 5.90528,-1.562 3.58584,-2.3905 3.95846,-4.9958 3.95846,-4.9958 0,0 -6.87689,-10.4967 -20.19074,-10.4967 -6.35294,0 -13.58916,1.6648 -13.58916,1.6648 0,0 -1.97743,-1.6387 -5.70988,-1.6387 z"
       style="color:#000000;font-style:normal;font-variant:normal;font-weight:normal;font-stretch:normal;font-size:medium;line-height:normal;font-family:sans-serif;text-indent:0;text-align:start;text-decoration:none;text-decoration-line:none;text-decoration-style:solid;text-decoration-color:#000000;letter-spacing:normal;word-spacing:normal;text-transform:none;direction:ltr;block-progression:tb;writing-mode:lr-tb;baseline-shift:baseline;text-anchor:start;white-space:normal;clip-rule:nonzero;display:inline;overflow:visible;visibility:visible;opacity:1;isolation:auto;mix-blend-mode:normal;color-interpolation:sRGB;color-interpolation-filters:linearRGB;solid-color:#000000;solid-opacity:1;fill:url(#linearGradient5467);fill-opacity:1;fill-rule:evenodd;stroke:none;stroke-width:18;stroke-linecap:round;stroke-linejoin:miter;stroke-miterlimit:4;stroke-dasharray:none;stroke-dashoffset:0;stroke-opacity:1;color-rendering:auto;image-rendering:auto;shape-rendering:auto;text-rendering:auto;enable-background:accumulate" />
    <path
       sodipodi:nodetypes="zcczcczsczcszcz"
       inkscape:connector-curvature="0"
       id="path5260"
       d="m 243.76388,939.81579 c -3.97784,0 -5.15137,1.6517 -5.15137,1.6517 l 0,51.6214 c 0,0 0.53485,1.628 5.9136,1.628 5.37879,0 6.48829,-1.628 6.48829,-1.628 l 0,-31.8215 c 1.0154,-5.5904 4.9828,-9.4157 11.0374,-9.4157 6.0545,0 12.0707,4.8339 12.0707,12.5338 l 0,28.7091 c 0,0 1.1523,1.6235 6.3568,1.6235 5.2043,0 6.4781,-1.6235 6.4781,-1.6235 l 0,-28.7091 c 0,-16.118 -14.6614,-24.5645 -24.6979,-24.5645 -10.0365,0 -12.5935,1.641 -12.5935,1.641 0,0 -1.9242,-1.6462 -5.90212,-1.6462 z"
       style="color:#000000;font-style:normal;font-variant:normal;font-weight:normal;font-stretch:normal;font-size:medium;line-height:normal;font-family:sans-serif;text-indent:0;text-align:start;text-decoration:none;text-decoration-line:none;text-decoration-style:solid;text-decoration-color:#000000;letter-spacing:normal;word-spacing:normal;text-transform:none;direction:ltr;block-progression:tb;writing-mode:lr-tb;baseline-shift:baseline;text-anchor:start;white-space:normal;clip-rule:nonzero;display:inline;overflow:visible;visibility:visible;opacity:1;isolation:auto;mix-blend-mode:normal;color-interpolation:sRGB;color-interpolation-filters:linearRGB;solid-color:#000000;solid-opacity:1;fill:url(#linearGradient5443);fill-opacity:1;fill-rule:evenodd;stroke:none;stroke-width:18;stroke-linecap:round;stroke-linejoin:miter;stroke-miterlimit:4;stroke-dasharray:none;stroke-dashoffset:0;stroke-opacity:1;color-rendering:auto;image-rendering:auto;shape-rendering:auto;text-rendering:auto;enable-background:accumulate" />
    <path
       sodipodi:nodetypes="zcczccssszcczcszcczc"
       inkscape:connector-curvature="0"
       id="path5262"
       d="m 304.7569,891.14209 c -5.6244,0.085 -6.5993,1.6055 -6.5993,1.6055 l 0,100.3477 c 0,0 0.2226,1.6624 6.2548,1.6624 6.0322,0 8.1815,-1.6579 8.1815,-1.6579 l 0,-3.6388 c 0,0 3.7992,5.2753 17.6725,5.2753 10.893,0 18.9564,-5.3502 21.8314,-12.6161 3.3178,-8.3849 3.3394,-17.4979 0.2636,-27.3185 -2.3915,-7.6361 -8.8636,-15.0021 -22.3231,-15.0021 -13.4593,0 -17.3136,4.0036 -17.3136,4.0036 l 0,-51.0556 c 0,0 -2.3434,-1.6909 -7.9678,-1.6055 z m 35.326,68.2732 c 1.7725,5.6593 1.3504,7.3628 1.3504,12.1482 0,4.8517 -2.5467,10.9209 -13.8009,11.0033 -11.2542,0.082 -13.4039,-9.3964 -13.4039,-9.3964 l 0,-13.5742 c 0,0 4.9841,-7.7347 12.4161,-7.7347 7.4321,0 12.2758,3.8258 13.4383,7.5538 z"
       style="color:#000000;font-style:normal;font-variant:normal;font-weight:normal;font-stretch:normal;font-size:medium;line-height:normal;font-family:sans-serif;text-indent:0;text-align:start;text-decoration:none;text-decoration-line:none;text-decoration-style:solid;text-decoration-color:#000000;letter-spacing:normal;word-spacing:normal;text-transform:none;direction:ltr;block-progression:tb;writing-mode:lr-tb;baseline-shift:baseline;text-anchor:start;white-space:normal;clip-rule:nonzero;display:inline;overflow:visible;visibility:visible;opacity:1;isolation:auto;mix-blend-mode:normal;color-interpolation:sRGB;color-interpolation-filters:linearRGB;solid-color:#000000;solid-opacity:1;fill:url(#linearGradient5427);fill-opacity:1;fill-rule:evenodd;stroke:none;stroke-width:18;stroke-linecap:round;stroke-linejoin:miter;stroke-miterlimit:4;stroke-dasharray:none;stroke-dashoffset:0;stroke-opacity:1;color-rendering:auto;image-rendering:auto;shape-rendering:auto;text-rendering:auto;enable-background:accumulate" />
    <path
       sodipodi:nodetypes="zcczccz"
       inkscape:connector-curvature="0"
       id="path5266"
       d="m 433.5219,891.16129 c -6.1858,0 -7.5454,1.5097 -7.5454,1.5097 l 0,100.4243 c 0,0 1.5713,1.6149 7.7166,1.6149 6.1454,0 6.9511,-1.6149 6.9511,-1.6149 l 0,-100.4243 c 0,0 -0.9367,-1.5097 -7.1223,-1.5097 z"
       style="color:#000000;font-style:normal;font-variant:normal;font-weight:normal;font-stretch:normal;font-size:medium;line-height:normal;font-family:sans-serif;text-indent:0;text-align:start;text-decoration:none;text-decoration-line:none;text-decoration-style:solid;text-decoration-color:#000000;letter-spacing:normal;word-spacing:normal;text-transform:none;direction:ltr;block-progression:tb;writing-mode:lr-tb;baseline-shift:baseline;text-anchor:start;white-space:normal;clip-rule:nonzero;display:inline;overflow:visible;visibility:visible;opacity:1;isolation:auto;mix-blend-mode:normal;color-interpolation:sRGB;color-interpolation-filters:linearRGB;solid-color:#000000;solid-opacity:1;fill:url(#linearGradient5475);fill-opacity:1;fill-rule:evenodd;stroke:none;stroke-width:18;stroke-linecap:round;stroke-linejoin:miter;stroke-miterlimit:4;stroke-dasharray:none;stroke-dashoffset:0;stroke-opacity:1;color-rendering:auto;image-rendering:auto;shape-rendering:auto;text-rendering:auto;enable-background:accumulate" />
    <path
       style="color:#000000;font-style:normal;font-variant:normal;font-weight:normal;font-stretch:normal;font-size:medium;line-height:normal;font-family:sans-serif;text-indent:0;text-align:start;text-decoration:none;text-decoration-line:none;text-decoration-style:solid;text-decoration-color:#000000;letter-spacing:normal;word-spacing:normal;text-transform:none;direction:ltr;block-progression:tb;writing-mode:lr-tb;baseline-shift:baseline;text-anchor:start;white-space:normal;clip-rule:nonzero;display:inline;overflow:visible;visibility:visible;opacity:1;isolation:auto;mix-blend-mode:normal;color-interpolation:sRGB;color-interpolation-filters:linearRGB;solid-color:#000000;solid-opacity:1;fill:url(#linearGradient5419);fill-opacity:1;fill-rule:evenodd;stroke:none;stroke-width:18;stroke-linecap:round;stroke-linejoin:miter;stroke-miterlimit:4;stroke-dasharray:none;stroke-dashoffset:0;stroke-opacity:1;color-rendering:auto;image-rendering:auto;shape-rendering:auto;text-rendering:auto;enable-background:accumulate"
       d="m 462.8225,891.16129 c -6.1857,0 -7.5453,1.5097 -7.5453,1.5097 l 0,100.4243 c 0,0 1.5713,1.6149 7.7167,1.6149 6.1453,0 6.951,-1.6149 6.951,-1.6149 l 0,-100.4243 c 0,0 -0.9368,-1.5097 -7.1224,-1.5097 z"
       id="path5278"
       inkscape:connector-curvature="0"
       sodipodi:nodetypes="zcczccz" />
    <path
       style="color:#000000;font-style:normal;font-variant:normal;font-weight:normal;font-stretch:normal;font-size:medium;line-height:normal;font-family:sans-serif;text-indent:0;text-align:start;text-decoration:none;text-decoration-line:none;text-decoration-style:solid;text-decoration-color:#000000;letter-spacing:normal;word-spacing:normal;text-transform:none;direction:ltr;block-progression:tb;writing-mode:lr-tb;baseline-shift:baseline;text-anchor:start;white-space:normal;clip-rule:nonzero;display:inline;overflow:visible;visibility:visible;opacity:1;isolation:auto;mix-blend-mode:normal;color-interpolation:sRGB;color-interpolation-filters:linearRGB;solid-color:#000000;solid-opacity:1;fill:url(#linearGradient5459);fill-opacity:1;fill-rule:evenodd;stroke:none;stroke-width:18;stroke-linecap:round;stroke-linejoin:miter;stroke-miterlimit:4;stroke-dasharray:none;stroke-dashoffset:0;stroke-opacity:1;color-rendering:auto;image-rendering:auto;shape-rendering:auto;text-rendering:auto;enable-background:accumulate"
       d="m 406.724,939.81459 c -3.8977,0 -4.8369,1.6163 -4.8369,1.6163 l 0,2.5149 c 0,0 -3.9144,-4.1243 -14.4262,-4.1243 -11.8507,0 -24.4203,11.1103 -24.4203,28.0463 -0.385,14.338 10.6036,26.7215 23.5778,26.8338 12.9741,0.1123 14.183,-4.1285 14.183,-4.1285 l 0,2.5461 c 0,0 2.0129,1.5922 6.005,1.5922 3.992,0 5.9343,-1.5922 5.9343,-1.5922 l 0,-51.6883 c 0,0 -1.6181,-1.6163 -6.0167,-1.6163 z m -4.8356,18.2795 0,18.845 c 0,0 -4.0491,7.6869 -13.7109,7.6869 -9.6618,0 -13.9647,-9.6839 -13.9424,-17.5331 0,-8.7866 5.4857,-15.7443 12.6399,-15.7443 10.0788,0 15.0134,6.7455 15.0134,6.7455 z"
       id="path5288"
       inkscape:connector-curvature="0"
       sodipodi:nodetypes="sccsczcczccscczcsc" />
  </g>
  <g
     inkscape:groupmode="layer"
     id="layer4"
     inkscape:label="beta"
     style="display:none">
    <rect
       transform="translate(0,-412.36216)"
       style="color:#000000;clip-rule:nonzero;display:inline;overflow:visible;visibility:visible;opacity:1;isolation:auto;mix-blend-mode:normal;color-interpolation:sRGB;color-interpolation-filters:linearRGB;solid-color:#000000;solid-opacity:1;fill:#af0800;fill-opacity:1;fill-rule:evenodd;stroke:none;stroke-width:4.99999952;stroke-linecap:butt;stroke-linejoin:miter;stroke-miterlimit:4;stroke-dasharray:none;stroke-dashoffset:0;stroke-opacity:1;color-rendering:auto;image-rendering:auto;shape-rendering:auto;text-rendering:auto;enable-background:accumulate"
       id="rect4804-1"
       width="55.070412"
       height="24.555908"
       x="480.76166"
       y="892.82379"
       ry="6.0136909" />
    <text
       transform="translate(0,-412.36216)"
       xml:space="preserve"
       style="font-style:normal;font-variant:normal;font-weight:700;font-stretch:normal;font-size:20.04563141px;line-height:125%;font-family:Roboto;-inkscape-font-specification:'Roboto Bold';letter-spacing:0px;word-spacing:0px;display:inline;fill:#ffffff;fill-opacity:1;stroke:none;stroke-width:1px;stroke-linecap:butt;stroke-linejoin:miter;stroke-opacity:1"
       x="483.70477"
       y="912.2851"
       id="text4806-3"
       sodipodi:linespacing="125%"><tspan
         sodipodi:role="line"
         id="tspan4808-4"
         x="483.70477"
         y="912.2851">BETA</tspan></text>
  </g>
  <g
     inkscape:groupmode="layer"
     id="layer5"
     inkscape:label="beta (as path)"
     style="display:inline">
    <rect
       ry="6.0136909"
       y="892.82379"
       x="480.76166"
       height="24.555908"
       width="55.070412"
       id="rect4206"
       style="color:#000000;clip-rule:nonzero;display:inline;overflow:visible;visibility:visible;opacity:1;isolation:auto;mix-blend-mode:normal;color-interpolation:sRGB;color-interpolation-filters:linearRGB;solid-color:#000000;solid-opacity:1;fill:#af0800;fill-opacity:1;fill-rule:evenodd;stroke:none;stroke-width:4.99999952;stroke-linecap:butt;stroke-linejoin:miter;stroke-miterlimit:4;stroke-dasharray:none;stroke-dashoffset:0;stroke-opacity:1;color-rendering:auto;image-rendering:auto;shape-rendering:auto;text-rendering:auto;enable-background:accumulate"
       transform="translate(0,-412.36216)" />
    <g
       transform="translate(0,-412.36216)"
       style="font-style:normal;font-variant:normal;font-weight:700;font-stretch:normal;font-size:20.04563141px;line-height:125%;font-family:Roboto;-inkscape-font-specification:'Roboto Bold';letter-spacing:0px;word-spacing:0px;display:inline;fill:#ffffff;fill-opacity:1;stroke:none;stroke-width:1px;stroke-linecap:butt;stroke-linejoin:miter;stroke-opacity:1"
       id="text4208">
      <path
         d="m 484.9772,912.2851 0,-14.2512 4.99183,0 q 2.5938,0 3.93474,0.99837 1.34094,0.98858 1.34094,2.90701 0,1.0473 -0.53833,1.84991 -0.53834,0.79282 -1.49755,1.16476 1.09625,0.27407 1.72267,1.10604 0.63621,0.83197 0.63621,2.03588 0,2.05546 -1.31157,3.11256 -1.31158,1.05709 -3.73898,1.07667 l -5.53996,0 z m 2.93637,-6.20554 0,3.84665 2.51549,0 q 1.03752,0 1.61501,-0.4894 0.58727,-0.49918 0.58727,-1.3703 0,-1.95758 -2.02609,-1.98695 l -2.69168,0 z m 0,-2.07503 2.17292,0 q 2.22185,-0.0392 2.22185,-1.77161 0,-0.96901 -0.5677,-1.38989 -0.55791,-0.43066 -1.77161,-0.43066 l -2.05546,0 0,3.59216 z"
         id="path4225"
         inkscape:connector-curvature="0" />
      <path
         d="m 506.35399,906.10893 -5.63784,0 0,3.81728 6.61663,0 0,2.35889 -9.553,0 0,-14.2512 9.53342,0 0,2.37847 -6.59705,0 0,3.3964 5.63784,0 0,2.30016 z"
         id="path4227"
         inkscape:connector-curvature="0" />
      <path
         d="m 519.97875,900.41237 -4.3654,0 0,11.87273 -2.93638,0 0,-11.87273 -4.30667,0 0,-2.37847 11.60845,0 0,2.37847 z"
         id="path4229"
         inkscape:connector-curvature="0" />
      <path
         d="m 528.53338,909.34872 -5.14844,0 -0.97879,2.93638 -3.12234,0 5.30504,-14.2512 2.72104,0 5.33441,14.2512 -3.12234,0 -0.98858,-2.93638 z m -4.35562,-2.37846 3.5628,0 -1.79119,-5.33441 -1.77161,5.33441 z"
         id="path4231"
         inkscape:connector-curvature="0" />
    </g>
  </g>
  <g
     inkscape:groupmode="layer"
     id="layer2"
     inkscape:label="data spaghetti"
     style="display:none">
    <text
       xml:space="preserve"
       style="font-style:normal;font-variant:normal;font-weight:normal;font-stretch:normal;font-size:38.65717316px;line-height:125%;font-family:Ubuntu;-inkscape-font-specification:Ubuntu;letter-spacing:0px;word-spacing:0px;display:inline;fill:#ffb116;fill-opacity:1;stroke:none;stroke-width:1px;stroke-linecap:butt;stroke-linejoin:miter;stroke-opacity:1"
       x="216.44"
       y="1036.6099"
       id="text4457"
       sodipodi:linespacing="125%"
       transform="translate(0,-412.36216)"><tspan
         sodipodi:role="line"
         id="tspan4459"
         x="216.44"
         y="1036.6099">data spaghetti</tspan></text>
  </g>
  <g
     inkscape:groupmode="layer"
     id="layer3"
     inkscape:label="data spaghetti (as path)"
     style="display:none">
    <g
       transform="translate(0,-412.36216)"
       style="font-style:normal;font-variant:normal;font-weight:normal;font-stretch:normal;font-size:38.65717316px;line-height:125%;font-family:Ubuntu;-inkscape-font-specification:Ubuntu;letter-spacing:0px;word-spacing:0px;display:inline;fill:#ffb116;fill-opacity:1;stroke:none;stroke-width:1px;stroke-linecap:butt;stroke-linejoin:miter;stroke-opacity:1"
       id="text4168">
      <path
         d="m 232.52139,1020.7604 q -0.65718,-0.5412 -1.89421,-1.0437 -1.23702,-0.5026 -2.706,-0.5026 -1.54628,0 -2.66734,0.5799 -1.0824,0.5412 -1.77823,1.5463 -0.69583,0.9664 -1.00509,2.3194 -0.30926,1.353 -0.30926,2.8993 0,3.5178 1.73958,5.4507 1.73957,1.8942 4.63886,1.8942 1.46897,0 2.4354,-0.116 1.00509,-0.1546 1.54629,-0.3093 l 0,-12.7182 z m 0,-13.53 3.59511,-0.6185 0,29.4181 q -1.23703,0.3479 -3.16988,0.6958 -1.93286,0.3479 -4.44558,0.3479 -2.31943,0 -4.17497,-0.7344 -1.85555,-0.7345 -3.16989,-2.0875 -1.31435,-1.353 -2.04883,-3.2859 -0.69583,-1.9715 -0.69583,-4.4069 0,-2.3194 0.57986,-4.2523 0.61851,-1.9328 1.77823,-3.3245 1.15971,-1.3917 2.82197,-2.1648 1.70092,-0.7732 3.86572,-0.7732 1.73957,0 3.05391,0.4639 1.353,0.4639 2.01018,0.8891 l 0,-10.1668 z"
         id="path4204"
         inkscape:connector-curvature="0" />
      <path
         d="m 249.13793,1034.0198 q 1.27569,0 2.24212,-0.039 1.00508,-0.077 1.66225,-0.232 l 0,-5.9918 q -0.38657,-0.1933 -1.27568,-0.3093 -0.85046,-0.1546 -2.08749,-0.1546 -0.8118,0 -1.73957,0.116 -0.88912,0.1159 -1.66226,0.5025 -0.73449,0.3479 -1.23703,1.0051 -0.50254,0.6185 -0.50254,1.6622 0,1.9329 1.23703,2.706 1.23703,0.7345 3.36317,0.7345 z m -0.30926,-18.0142 q 2.1648,0 3.63378,0.5798 1.50763,0.5412 2.39674,1.585 0.92777,1.0051 1.31435,2.4354 0.38657,1.3917 0.38657,3.0926 l 0,12.5635 q -0.46389,0.077 -1.31435,0.232 -0.8118,0.116 -1.85554,0.2319 -1.04374,0.116 -2.28077,0.1933 -1.19838,0.116 -2.39675,0.116 -1.70091,0 -3.13123,-0.3479 -1.43032,-0.3479 -2.47406,-1.0824 -1.04374,-0.7732 -1.6236,-2.0102 -0.57986,-1.237 -0.57986,-2.9766 0,-1.6623 0.65717,-2.8606 0.69583,-1.1984 1.85555,-1.9329 1.15971,-0.7345 2.706,-1.0824 1.54629,-0.3479 3.2472,-0.3479 0.5412,0 1.12106,0.077 0.57986,0.039 1.0824,0.1546 0.5412,0.077 0.92777,0.1547 0.38658,0.077 0.5412,0.1159 l 0,-1.005 q 0,-0.8892 -0.19328,-1.7396 -0.19329,-0.8891 -0.69583,-1.5463 -0.50254,-0.6958 -1.39166,-1.0824 -0.85046,-0.4252 -2.24211,-0.4252 -1.77823,0 -3.13124,0.2706 -1.31434,0.2319 -1.97151,0.5025 l -0.42523,-2.9766 q 0.69583,-0.3093 2.31943,-0.5799 1.6236,-0.3092 3.5178,-0.3092 z"
         id="path4206"
         inkscape:connector-curvature="0" />
      <path
         d="m 265.85655,1016.5081 7.61546,0 0,3.0153 -7.61546,0 0,9.2777 q 0,1.5076 0.23194,2.5127 0.23195,0.9665 0.69583,1.5463 0.46389,0.5412 1.15972,0.7732 0.69583,0.2319 1.6236,0.2319 1.6236,0 2.59003,-0.3479 1.00509,-0.3866 1.39166,-0.5412 l 0.69583,2.9766 q -0.5412,0.2706 -1.8942,0.6572 -1.35301,0.4252 -3.09258,0.4252 -2.04883,0 -3.40183,-0.5026 -1.31434,-0.5412 -2.12614,-1.5849 -0.8118,-1.0437 -1.15972,-2.5514 -0.30926,-1.5463 -0.30926,-3.5564 l 0,-17.937 3.59512,-0.6185 0,6.2238 z"
         id="path4208"
         inkscape:connector-curvature="0" />
      <path
         d="m 284.85051,1034.0198 q 1.27569,0 2.24212,-0.039 1.00509,-0.077 1.66226,-0.232 l 0,-5.9918 q -0.38657,-0.1933 -1.27569,-0.3093 -0.85046,-0.1546 -2.08749,-0.1546 -0.8118,0 -1.73957,0.116 -0.88911,0.1159 -1.66226,0.5025 -0.73448,0.3479 -1.23703,1.0051 -0.50254,0.6185 -0.50254,1.6622 0,1.9329 1.23703,2.706 1.23703,0.7345 3.36317,0.7345 z m -0.30925,-18.0142 q 2.1648,0 3.63377,0.5798 1.50763,0.5412 2.39674,1.585 0.92778,1.0051 1.31435,2.4354 0.38657,1.3917 0.38657,3.0926 l 0,12.5635 q -0.46389,0.077 -1.31434,0.232 -0.8118,0.116 -1.85555,0.2319 -1.04374,0.116 -2.28077,0.1933 -1.19837,0.116 -2.39675,0.116 -1.70091,0 -3.13123,-0.3479 -1.43031,-0.3479 -2.47406,-1.0824 -1.04374,-0.7732 -1.6236,-2.0102 -0.57985,-1.237 -0.57985,-2.9766 0,-1.6623 0.65717,-2.8606 0.69583,-1.1984 1.85554,-1.9329 1.15972,-0.7345 2.706,-1.0824 1.54629,-0.3479 3.24721,-0.3479 0.5412,0 1.12105,0.077 0.57986,0.039 1.08241,0.1546 0.5412,0.077 0.92777,0.1547 0.38657,0.077 0.5412,0.1159 l 0,-1.005 q 0,-0.8892 -0.19329,-1.7396 -0.19328,-0.8891 -0.69583,-1.5463 -0.50254,-0.6958 -1.39166,-1.0824 -0.85045,-0.4252 -2.24211,-0.4252 -1.77823,0 -3.13123,0.2706 -1.31435,0.2319 -1.97152,0.5025 l -0.42523,-2.9766 q 0.69583,-0.3093 2.31943,-0.5799 1.6236,-0.3092 3.51781,-0.3092 z"
         id="path4210"
         inkscape:connector-curvature="0" />
      <path
         d="m 311.79275,1034.0198 q 2.20346,0 3.2472,-0.5798 1.0824,-0.5799 1.0824,-1.8556 0,-1.3143 -1.04374,-2.0875 -1.04374,-0.7731 -3.44049,-1.7395 -1.15971,-0.4639 -2.24211,-0.9278 -1.04375,-0.5025 -1.81689,-1.1597 -0.77314,-0.6572 -1.23703,-1.585 -0.46389,-0.9277 -0.46389,-2.2807 0,-2.6674 1.97152,-4.2137 1.97152,-1.5849 5.37335,-1.5849 0.85045,0 1.70091,0.116 0.85046,0.077 1.58495,0.2319 0.73448,0.116 1.27568,0.2706 0.57986,0.1546 0.88912,0.2706 l -0.65717,3.0926 q -0.57986,-0.3093 -1.81689,-0.6185 -1.23703,-0.348 -2.9766,-0.348 -1.50763,0 -2.62869,0.6186 -1.12106,0.5798 -1.12106,1.8555 0,0.6572 0.23194,1.1597 0.2706,0.5026 0.77315,0.9278 0.5412,0.3866 1.31434,0.7345 0.77314,0.3479 1.85555,0.7345 1.43031,0.5412 2.55137,1.0824 1.12106,0.5025 1.8942,1.1983 0.8118,0.6959 1.23703,1.701 0.42523,0.9664 0.42523,2.3967 0,2.7833 -2.08749,4.2136 -2.04883,1.4303 -5.87589,1.4303 -2.66734,0 -4.17497,-0.4638 -1.50763,-0.4253 -2.04883,-0.6572 l 0.65717,-3.0926 q 0.61851,0.232 1.97151,0.6958 1.35301,0.4639 3.59512,0.4639 z"
         id="path4212"
         inkscape:connector-curvature="0" />
      <path
         d="m 338.285,1026.5977 q 0,-3.5178 -1.73958,-5.412 -1.73957,-1.8943 -4.63886,-1.8943 -1.6236,0 -2.55137,0.116 -0.88912,0.116 -1.43032,0.2706 l 0,12.6796 q 0.65718,0.5412 1.89421,1.0437 1.23702,0.5026 2.706,0.5026 1.54628,0 2.62868,-0.5412 1.12106,-0.5799 1.81689,-1.5463 0.69583,-1.0051 1.00509,-2.3195 0.30926,-1.353 0.30926,-2.8992 z m 3.74974,0 q 0,2.2807 -0.61851,4.2136 -0.57986,1.9328 -1.73958,3.3245 -1.15971,1.3917 -2.86063,2.1648 -1.66226,0.7731 -3.82706,0.7731 -1.73957,0 -3.09257,-0.4638 -1.31434,-0.4639 -1.97152,-0.8892 l 0,8.0407 -3.59511,0 0,-26.6348 q 1.27568,-0.3092 3.16988,-0.6571 1.93286,-0.3866 4.44558,-0.3866 2.31943,0 4.17497,0.7345 1.85555,0.7345 3.16989,2.0875 1.31435,1.353 2.01018,3.3245 0.73448,1.9329 0.73448,4.3683 z"
         id="path4214"
         inkscape:connector-curvature="0" />
      <path
         d="m 353.93511,1034.0198 q 1.27568,0 2.24211,-0.039 1.00509,-0.077 1.66226,-0.232 l 0,-5.9918 q -0.38657,-0.1933 -1.27568,-0.3093 -0.85046,-0.1546 -2.08749,-0.1546 -0.8118,0 -1.73957,0.116 -0.88912,0.1159 -1.66226,0.5025 -0.73449,0.3479 -1.23703,1.0051 -0.50255,0.6185 -0.50255,1.6622 0,1.9329 1.23703,2.706 1.23703,0.7345 3.36318,0.7345 z m -0.30926,-18.0142 q 2.1648,0 3.63377,0.5798 1.50763,0.5412 2.39675,1.585 0.92777,1.0051 1.31434,2.4354 0.38658,1.3917 0.38658,3.0926 l 0,12.5635 q -0.46389,0.077 -1.31435,0.232 -0.8118,0.116 -1.85554,0.2319 -1.04375,0.116 -2.28078,0.1933 -1.19837,0.116 -2.39674,0.116 -1.70092,0 -3.13123,-0.3479 -1.43032,-0.3479 -2.47406,-1.0824 -1.04374,-0.7732 -1.6236,-2.0102 -0.57986,-1.237 -0.57986,-2.9766 0,-1.6623 0.65717,-2.8606 0.69583,-1.1984 1.85555,-1.9329 1.15971,-0.7345 2.706,-1.0824 1.54629,-0.3479 3.2472,-0.3479 0.5412,0 1.12106,0.077 0.57986,0.039 1.0824,0.1546 0.5412,0.077 0.92777,0.1547 0.38657,0.077 0.5412,0.1159 l 0,-1.005 q 0,-0.8892 -0.19328,-1.7396 -0.19329,-0.8891 -0.69583,-1.5463 -0.50255,-0.6958 -1.39166,-1.0824 -0.85046,-0.4252 -2.24212,-0.4252 -1.77823,0 -3.13123,0.2706 -1.31434,0.2319 -1.97151,0.5025 l -0.42523,-2.9766 q 0.69583,-0.3093 2.31943,-0.5799 1.6236,-0.3092 3.5178,-0.3092 z"
         id="path4216"
         inkscape:connector-curvature="0" />
      <path
         d="m 379.8928,1034.5997 q -0.46389,0.3092 -1.81689,0.8118 -1.31435,0.4639 -3.09258,0.4639 -1.81688,0 -3.44048,-0.5799 -1.58495,-0.5798 -2.78332,-1.7782 -1.19837,-1.237 -1.8942,-3.0539 -0.69583,-1.8169 -0.69583,-4.3296 0,-2.2035 0.65717,-4.0204 0.65717,-1.8555 1.8942,-3.1699 1.27569,-1.353 3.09258,-2.0875 1.81688,-0.7731 4.09766,-0.7731 2.51271,0 4.36826,0.3866 1.8942,0.3479 3.16989,0.6571 l 0,17.937 q 0,4.6388 -2.39675,6.7263 -2.39674,2.0875 -7.26755,2.0875 -1.8942,0 -3.59512,-0.3092 -1.66225,-0.3093 -2.89928,-0.7345 l 0.65717,-3.1313 q 1.0824,0.4253 2.62869,0.7345 1.58494,0.3479 3.28586,0.3479 3.20854,0 4.6002,-1.2756 1.43032,-1.2757 1.43032,-4.0591 l 0,-0.8504 z m -0.0387,-14.9217 q -0.5412,-0.1546 -1.46897,-0.2706 -0.88912,-0.1546 -2.43541,-0.1546 -2.89928,0 -4.48423,1.8942 -1.54629,1.8942 -1.54629,5.0254 0,1.7396 0.42523,2.9766 0.46389,1.2371 1.19838,2.0489 0.77314,0.8118 1.73957,1.1983 1.00508,0.3866 2.04883,0.3866 1.43031,0 2.62869,-0.3866 1.19837,-0.4252 1.8942,-0.9664 l 0,-11.7518 z"
         id="path4218"
         inkscape:connector-curvature="0" />
      <path
         d="m 389.63924,1036.6099 0,-29.3795 3.59511,-0.6185 0,10.2828 q 1.00509,-0.3866 2.12615,-0.5799 1.15971,-0.2319 2.28077,-0.2319 2.39674,0 3.98169,0.6958 1.58494,0.6572 2.51272,1.8942 0.96642,1.1984 1.353,2.8993 0.38657,1.7009 0.38657,3.7498 l 0,11.2879 -3.59512,0 0,-10.5148 q 0,-1.8555 -0.2706,-3.1699 -0.23194,-1.3143 -0.8118,-2.1261 -0.57986,-0.8118 -1.54629,-1.1597 -0.96643,-0.3866 -2.39674,-0.3866 -0.57986,0 -1.19837,0.077 -0.61852,0.077 -1.19838,0.1933 -0.5412,0.077 -1.00508,0.1933 -0.42523,0.116 -0.61852,0.1933 l 0,16.6999 -3.59511,0 z"
         id="path4220"
         inkscape:connector-curvature="0" />
      <path
         d="m 410.56484,1026.5977 q 0,-2.6674 0.77314,-4.6389 0.77315,-2.0102 2.04883,-3.3245 1.27569,-1.3144 2.93795,-1.9715 1.66226,-0.6572 3.40183,-0.6572 4.059,0 6.2238,2.5514 2.16481,2.5127 2.16481,7.6927 0,0.232 0,0.6186 0,0.3479 -0.0387,0.6571 l -13.76196,0 q 0.23195,3.1313 1.81689,4.7549 1.58495,1.6236 4.94812,1.6236 1.8942,0 3.16989,-0.3093 1.31434,-0.3479 1.97151,-0.6572 l 0.50255,3.0153 q -0.65717,0.3479 -2.31943,0.7345 -1.6236,0.3865 -3.71109,0.3865 -2.62869,0 -4.56155,-0.7731 -1.8942,-0.8118 -3.13123,-2.2035 -1.23703,-1.3916 -1.85554,-3.2858 -0.57986,-1.9329 -0.57986,-4.2136 z m 13.80061,-1.9716 q 0.0387,-2.4354 -1.23703,-3.9816 -1.23703,-1.585 -3.44049,-1.585 -1.23703,0 -2.20346,0.5025 -0.92777,0.4639 -1.58494,1.2371 -0.65717,0.7731 -1.04375,1.7782 -0.34791,1.0051 -0.46388,2.0488 l 9.97355,0 z"
         id="path4222"
         inkscape:connector-curvature="0" />
      <path
         d="m 436.64273,1016.5081 7.61546,0 0,3.0153 -7.61546,0 0,9.2777 q 0,1.5076 0.23194,2.5127 0.23195,0.9665 0.69583,1.5463 0.46389,0.5412 1.15972,0.7732 0.69583,0.2319 1.6236,0.2319 1.6236,0 2.59003,-0.3479 1.00508,-0.3866 1.39166,-0.5412 l 0.69583,2.9766 q -0.5412,0.2706 -1.89421,0.6572 -1.353,0.4252 -3.09257,0.4252 -2.04883,0 -3.40183,-0.5026 -1.31434,-0.5412 -2.12615,-1.5849 -0.8118,-1.0437 -1.15971,-2.5514 -0.30926,-1.5463 -0.30926,-3.5564 l 0,-17.937 3.59512,-0.6185 0,6.2238 z"
         id="path4224"
         inkscape:connector-curvature="0" />
      <path
         d="m 452.19621,1016.5081 7.61546,0 0,3.0153 -7.61546,0 0,9.2777 q 0,1.5076 0.23194,2.5127 0.23195,0.9665 0.69583,1.5463 0.46389,0.5412 1.15972,0.7732 0.69583,0.2319 1.6236,0.2319 1.6236,0 2.59003,-0.3479 1.00509,-0.3866 1.39166,-0.5412 l 0.69583,2.9766 q -0.5412,0.2706 -1.8942,0.6572 -1.353,0.4252 -3.09258,0.4252 -2.04883,0 -3.40183,-0.5026 -1.31434,-0.5412 -2.12614,-1.5849 -0.8118,-1.0437 -1.15972,-2.5514 -0.30926,-1.5463 -0.30926,-3.5564 l 0,-17.937 3.59512,-0.6185 0,6.2238 z"
         id="path4226"
         inkscape:connector-curvature="0" />
      <path
         d="m 467.98162,1036.6099 -3.59512,0 0,-20.1018 3.59512,0 0,20.1018 z m -1.81689,-23.7355 q -0.96643,0 -1.66225,-0.6186 -0.65718,-0.6571 -0.65718,-1.7395 0,-1.0824 0.65718,-1.7009 0.69582,-0.6572 1.66225,-0.6572 0.96643,0 1.62361,0.6572 0.69582,0.6185 0.69582,1.7009 0,1.0824 -0.69582,1.7395 -0.65718,0.6186 -1.62361,0.6186 z"
         id="path4228"
         inkscape:connector-curvature="0" />
    </g>
  </g>
  <g
     style="display:none"
     inkscape:label="graph editor"
     id="g4194"
     inkscape:groupmode="layer">
    <text
       sodipodi:linespacing="125%"
       id="text4196"
       y="624.24768"
       x="470.25574"
       style="font-style:normal;font-variant:normal;font-weight:normal;font-stretch:normal;font-size:38.65717316px;line-height:125%;font-family:Ubuntu;-inkscape-font-specification:Ubuntu;text-align:end;letter-spacing:0px;word-spacing:0px;text-anchor:end;display:inline;fill:#ffb116;fill-opacity:1;stroke:none;stroke-width:1px;stroke-linecap:butt;stroke-linejoin:miter;stroke-opacity:1"
       xml:space="preserve"><tspan
         y="624.24768"
         x="470.25574"
         id="tspan4198"
         sodipodi:role="line">graph editor</tspan></text>
  </g>
  <g
     inkscape:groupmode="layer"
     id="g4202"
     inkscape:label="graph editor (as path)"
     style="display:inline">
    <g
       style="font-style:normal;font-variant:normal;font-weight:normal;font-stretch:normal;font-size:38.65717316px;line-height:125%;font-family:Ubuntu;-inkscape-font-specification:Ubuntu;text-align:end;letter-spacing:0px;word-spacing:0px;text-anchor:end;display:inline;fill:#ffb116;fill-opacity:1;stroke:none;stroke-width:1px;stroke-linecap:butt;stroke-linejoin:miter;stroke-opacity:1"
       id="text4204">
      <path
         d="m 267.74893,622.23751 q -0.46389,0.30926 -1.81689,0.8118 -1.31434,0.46388 -3.09257,0.46388 -1.81689,0 -3.44049,-0.57985 -1.58495,-0.57986 -2.78332,-1.77823 -1.19837,-1.23703 -1.8942,-3.05392 -0.69583,-1.81689 -0.69583,-4.3296 0,-2.20346 0.65717,-4.02035 0.65718,-1.85554 1.8942,-3.16989 1.27569,-1.353 3.09258,-2.08748 1.81689,-0.77315 4.09766,-0.77315 2.51272,0 4.36826,0.38657 1.8942,0.34792 3.16989,0.65718 l 0,17.93692 q 0,4.63886 -2.39675,6.72635 -2.39674,2.08749 -7.26755,2.08749 -1.8942,0 -3.59511,-0.30926 -1.66226,-0.30926 -2.89929,-0.73448 l 0.65717,-3.13124 q 1.0824,0.42523 2.62869,0.73449 1.58494,0.34792 3.28586,0.34792 3.20854,0 4.6002,-1.27569 1.43032,-1.27569 1.43032,-4.059 l 0,-0.85046 z m -0.0387,-14.92167 q -0.5412,-0.15463 -1.46897,-0.2706 -0.88912,-0.15463 -2.4354,-0.15463 -2.89929,0 -4.48424,1.8942 -1.54628,1.8942 -1.54628,5.02543 0,1.73958 0.42523,2.97661 0.46388,1.23703 1.19837,2.04883 0.77314,0.8118 1.73957,1.19837 1.00509,0.38657 2.04883,0.38657 1.43032,0 2.62869,-0.38657 1.19837,-0.42523 1.8942,-0.96643 l 0,-11.75178 z"
         style=""
         id="path4209" />
      <path
         d="m 284.91755,603.72072 q 0.46388,0 1.04374,0.0773 0.61851,0.0386 1.19837,0.15462 0.57986,0.0773 1.04374,0.19329 0.50255,0.0773 0.73449,0.15463 l -0.61851,3.13123 q -0.42523,-0.15463 -1.43032,-0.34791 -0.96643,-0.23195 -2.51272,-0.23195 -1.00508,0 -2.01017,0.23195 -0.96643,0.19328 -1.27569,0.2706 l 0,16.89318 -3.59511,0 0,-19.25127 q 1.27568,-0.46389 3.16989,-0.85046 1.8942,-0.42523 4.25229,-0.42523 z"
         style=""
         id="path4211" />
      <path
         d="m 299.24849,621.65765 q 1.27568,0 2.24211,-0.0387 1.00509,-0.0773 1.66226,-0.23194 l 0,-5.99186 q -0.38657,-0.19329 -1.27569,-0.30926 -0.85045,-0.15463 -2.08748,-0.15463 -0.8118,0 -1.73958,0.11597 -0.88911,0.11597 -1.66226,0.50255 -0.73448,0.34791 -1.23702,1.00508 -0.50255,0.61852 -0.50255,1.66226 0,1.93286 1.23703,2.706 1.23703,0.73449 3.36318,0.73449 z m -0.30926,-18.01424 q 2.1648,0 3.63377,0.57985 1.50763,0.54121 2.39675,1.58495 0.92777,1.00509 1.31434,2.4354 0.38657,1.39166 0.38657,3.09257 l 0,12.56359 q -0.46388,0.0773 -1.31434,0.23194 -0.8118,0.11597 -1.85555,0.23194 -1.04374,0.11597 -2.28077,0.19329 -1.19837,0.11597 -2.39674,0.11597 -1.70092,0 -3.13123,-0.34791 -1.43032,-0.34792 -2.47406,-1.08241 -1.04375,-0.77314 -1.6236,-2.01017 -0.57986,-1.23703 -0.57986,-2.9766 0,-1.66226 0.65717,-2.86063 0.69583,-1.19837 1.85554,-1.93286 1.15972,-0.73449 2.70601,-1.0824 1.54628,-0.34792 3.2472,-0.34792 0.5412,0 1.12106,0.0773 0.57985,0.0387 1.0824,0.15463 0.5412,0.0773 0.92777,0.15463 0.38657,0.0773 0.5412,0.11597 l 0,-1.00509 q 0,-0.88911 -0.19329,-1.73957 -0.19328,-0.88912 -0.69582,-1.54629 -0.50255,-0.69583 -1.39166,-1.0824 -0.85046,-0.42523 -2.24212,-0.42523 -1.77823,0 -3.13123,0.2706 -1.31434,0.23194 -1.97152,0.50254 l -0.42522,-2.9766 q 0.69582,-0.30926 2.31943,-0.57986 1.6236,-0.30925 3.5178,-0.30925 z"
         style=""
         id="path4213" />
      <path
         d="m 326.55917,614.23547 q 0,-3.5178 -1.73957,-5.412 -1.73957,-1.8942 -4.63886,-1.8942 -1.6236,0 -2.55137,0.11597 -0.88912,0.11597 -1.43032,0.2706 l 0,12.67955 q 0.65717,0.5412 1.8942,1.04375 1.23703,0.50254 2.706,0.50254 1.54629,0 2.62869,-0.5412 1.12106,-0.57986 1.81689,-1.54629 0.69583,-1.00509 1.00509,-2.31943 0.30925,-1.353 0.30925,-2.89929 z m 3.74975,0 q 0,2.28078 -0.61852,4.21363 -0.57985,1.93286 -1.73957,3.32452 -1.15971,1.39166 -2.86063,2.1648 -1.66226,0.77315 -3.82706,0.77315 -1.73957,0 -3.09257,-0.46389 -1.31435,-0.46389 -1.97152,-0.88911 l 0,8.04069 -3.59512,0 0,-26.63479 q 1.27569,-0.30926 3.16989,-0.65718 1.93286,-0.38657 4.44558,-0.38657 2.31943,0 4.17497,0.73449 1.85555,0.73448 3.16989,2.08749 1.31434,1.353 2.01017,3.32451 0.73449,1.93286 0.73449,4.36826 z"
         style=""
         id="path4215" />
      <path
         d="m 335.40562,624.24768 0,-29.37945 3.59512,-0.61852 0,10.28281 q 1.00509,-0.38657 2.12614,-0.57986 1.15972,-0.23194 2.28078,-0.23194 2.39674,0 3.98169,0.69583 1.58494,0.65717 2.51271,1.8942 0.96643,1.19837 1.353,2.89929 0.38658,1.70092 0.38658,3.74975 l 0,11.28789 -3.59512,0 0,-10.51475 q 0,-1.85554 -0.2706,-3.16989 -0.23194,-1.31434 -0.8118,-2.12614 -0.57986,-0.8118 -1.54629,-1.15972 -0.96643,-0.38657 -2.39674,-0.38657 -0.57986,0 -1.19838,0.0773 -0.61851,0.0773 -1.19837,0.19329 -0.5412,0.0773 -1.00508,0.19329 -0.42523,0.11597 -0.61852,0.19328 l 0,16.6999 -3.59512,0 z"
         style=""
         id="path4217" />
      <path
         d="m 365.24051,614.23547 q 0,-2.66734 0.77314,-4.63886 0.77314,-2.01017 2.04883,-3.32451 1.27569,-1.31435 2.93794,-1.97152 1.66226,-0.65717 3.40184,-0.65717 4.059,0 6.2238,2.55137 2.1648,2.51272 2.1648,7.69278 0,0.23194 0,0.61851 0,0.34792 -0.0387,0.65717 l -13.76195,0 q 0.23194,3.13124 1.81689,4.75484 1.58494,1.6236 4.94812,1.6236 1.8942,0 3.16988,-0.30926 1.31435,-0.34791 1.97152,-0.65717 l 0.50254,3.01526 q -0.65717,0.34791 -2.31943,0.73449 -1.6236,0.38657 -3.71109,0.38657 -2.62868,0 -4.56154,-0.77315 -1.8942,-0.8118 -3.13123,-2.20346 -1.23703,-1.39165 -1.85555,-3.28586 -0.57985,-1.93285 -0.57985,-4.21363 z m 13.80061,-1.97151 q 0.0387,-2.4354 -1.23703,-3.98169 -1.23703,-1.58495 -3.44049,-1.58495 -1.23703,0 -2.20346,0.50255 -0.92777,0.46388 -1.58494,1.23703 -0.65718,0.77314 -1.04375,1.77823 -0.34791,1.00508 -0.46388,2.04883 l 9.97355,0 z"
         style=""
         id="path4219" />
      <path
         d="m 400.94403,608.39824 q -0.65717,-0.5412 -1.8942,-1.04374 -1.23703,-0.50255 -2.706,-0.50255 -1.54629,0 -2.66735,0.57986 -1.0824,0.5412 -1.77823,1.54629 -0.69583,0.96643 -1.00508,2.31943 -0.30926,1.353 -0.30926,2.89929 0,3.5178 1.73957,5.45066 1.73958,1.8942 4.63886,1.8942 1.46898,0 2.43541,-0.11597 1.00508,-0.15463 1.54628,-0.30926 l 0,-12.71821 z m 0,-13.53001 3.59512,-0.61852 0,29.41811 q -1.23703,0.34792 -3.16989,0.69583 -1.93286,0.34792 -4.44557,0.34792 -2.31943,0 -4.17498,-0.73449 -1.85554,-0.73449 -3.16989,-2.08749 -1.31434,-1.353 -2.04883,-3.28586 -0.69583,-1.97151 -0.69583,-4.40691 0,-2.31943 0.57986,-4.25229 0.61852,-1.93286 1.77823,-3.32452 1.15972,-1.39166 2.82198,-2.1648 1.70091,-0.77315 3.86571,-0.77315 1.73958,0 3.05392,0.46389 1.353,0.46389 2.01017,0.88912 l 0,-10.16684 z"
         style=""
         id="path4221" />
      <path
         d="m 414.35202,624.24768 -3.59512,0 0,-20.10173 3.59512,0 0,20.10173 z m -1.81689,-23.7355 q -0.96643,0 -1.66226,-0.61852 -0.65717,-0.65717 -0.65717,-1.73957 0,-1.0824 0.65717,-1.70092 0.69583,-0.65717 1.66226,-0.65717 0.96643,0 1.6236,0.65717 0.69583,0.61852 0.69583,1.70092 0,1.0824 -0.69583,1.73957 -0.65717,0.61852 -1.6236,0.61852 z"
         style=""
         id="path4223" />
      <path
         d="m 423.93539,604.14595 7.61546,0 0,3.01526 -7.61546,0 0,9.27772 q 0,1.50763 0.23194,2.51272 0.23194,0.96643 0.69583,1.54628 0.46388,0.54121 1.15971,0.77315 0.69583,0.23194 1.6236,0.23194 1.62361,0 2.59003,-0.34791 1.00509,-0.38657 1.39166,-0.5412 l 0.69583,2.9766 q -0.5412,0.2706 -1.8942,0.65717 -1.353,0.42523 -3.09257,0.42523 -2.04883,0 -3.40183,-0.50254 -1.31435,-0.5412 -2.12615,-1.58495 -0.8118,-1.04374 -1.15971,-2.55137 -0.30926,-1.54629 -0.30926,-3.55646 l 0,-17.93693 3.59512,-0.61851 0,6.2238 z"
         style=""
         id="path4230" />
      <path
         d="m 453.3408,614.19682 q 0,2.39674 -0.69583,4.3296 -0.69583,1.93286 -1.97151,3.32452 -1.23703,1.39165 -2.97661,2.1648 -1.73957,0.73448 -3.7884,0.73448 -2.04883,0 -3.7884,-0.73448 -1.73957,-0.77315 -3.01526,-2.1648 -1.23703,-1.39166 -1.93286,-3.32452 -0.69583,-1.93286 -0.69583,-4.3296 0,-2.35809 0.69583,-4.29095 0.69583,-1.97152 1.93286,-3.36317 1.27569,-1.39166 3.01526,-2.12615 1.73957,-0.77314 3.7884,-0.77314 2.04883,0 3.7884,0.77314 1.73958,0.73449 2.97661,2.12615 1.27568,1.39165 1.97151,3.36317 0.69583,1.93286 0.69583,4.29095 z m -3.74974,0 q 0,-3.40184 -1.54629,-5.37335 -1.50763,-2.01017 -4.13632,-2.01017 -2.62869,0 -4.17497,2.01017 -1.50763,1.97151 -1.50763,5.37335 0,3.40183 1.50763,5.412 1.54628,1.97152 4.17497,1.97152 2.62869,0 4.13632,-1.97152 1.54629,-2.01017 1.54629,-5.412 z"
         style=""
         id="path4232" />
      <path
         d="m 465.82103,603.72072 q 0.46389,0 1.04375,0.0773 0.61851,0.0386 1.19837,0.15462 0.57986,0.0773 1.04374,0.19329 0.50255,0.0773 0.73449,0.15463 l -0.61852,3.13123 q -0.42522,-0.15463 -1.43031,-0.34791 -0.96643,-0.23195 -2.51272,-0.23195 -1.00508,0 -2.01017,0.23195 -0.96643,0.19328 -1.27569,0.2706 l 0,16.89318 -3.59511,0 0,-19.25127 q 1.27568,-0.46389 3.16988,-0.85046 1.89421,-0.42523 4.25229,-0.42523 z"
         style=""
         id="path4234" />
    </g>
  </g>
</svg>
