<?xml version="1.0" encoding="UTF-8" standalone="no"?>
<!-- Created with Inkscape (http://www.inkscape.org/) -->

<svg
   xmlns:dc="http://purl.org/dc/elements/1.1/"
   xmlns:cc="http://creativecommons.org/ns#"
   xmlns:rdf="http://www.w3.org/1999/02/22-rdf-syntax-ns#"
   xmlns:svg="http://www.w3.org/2000/svg"
   xmlns="http://www.w3.org/2000/svg"
   xmlns:xlink="http://www.w3.org/1999/xlink"
   xmlns:sodipodi="http://sodipodi.sourceforge.net/DTD/sodipodi-0.dtd"
   xmlns:inkscape="http://www.inkscape.org/namespaces/inkscape"
   width="550"
   height="640"
   viewBox="0 0 550 640"
   id="svg4785"
   version="1.1"
   inkscape:version="0.91 r13725"
   sodipodi:docname="logo.svg">
  <defs
     id="defs4787">
    <linearGradient
       inkscape:collect="always"
       xlink:href="#linearGradient5453"
       id="linearGradient5459"
       x1="695.28052"
       y1="989.13745"
       x2="688.97211"
       y2="1043.7804"
       gradientUnits="userSpaceOnUse"
       gradientTransform="matrix(0.85740374,0,0,0.85740374,-201.41213,131.88073)" />
    <linearGradient
       inkscape:collect="always"
       id="linearGradient5453">
      <stop
         style="stop-color:#858585;stop-opacity:1;"
         offset="0"
         id="stop5455" />
      <stop
         style="stop-color:#858585;stop-opacity:0;"
         offset="1"
         id="stop5457" />
    </linearGradient>
    <linearGradient
       inkscape:collect="always"
       xlink:href="#linearGradient5453"
       id="linearGradient5419"
       x1="770.7533"
       y1="942.4328"
       x2="823.20703"
       y2="950.58582"
       gradientUnits="userSpaceOnUse"
       gradientTransform="matrix(0.85740374,0,0,0.85740374,-199.97074,131.88073)" />
    <linearGradient
       inkscape:collect="always"
       xlink:href="#linearGradient5453"
       id="linearGradient5475"
       x1="735.60535"
       y1="946.448"
       x2="804.23022"
       y2="955.53943"
       gradientUnits="userSpaceOnUse"
       gradientTransform="matrix(0.85740374,0,0,0.85740374,-199.97074,131.88073)" />
    <linearGradient
       inkscape:collect="always"
       xlink:href="#linearGradient5453"
       id="linearGradient5427"
       x1="611.44324"
       y1="984.84845"
       x2="699.52911"
       y2="1086.3688"
       gradientUnits="userSpaceOnUse"
       gradientTransform="matrix(0.85740374,0,0,0.85740374,-201.41213,131.88073)" />
    <linearGradient
       inkscape:collect="always"
       xlink:href="#linearGradient5453"
       id="linearGradient5443"
       x1="557.14746"
       y1="978.36127"
       x2="448.87775"
       y2="1070.2852"
       gradientUnits="userSpaceOnUse"
       gradientTransform="matrix(0.85740374,0,0,0.85740374,-201.41213,131.88073)" />
    <linearGradient
       inkscape:collect="always"
       xlink:href="#linearGradient5453"
       id="linearGradient5467"
       x1="469.60452"
       y1="970.27112"
       x2="573.97668"
       y2="834.4057"
       gradientUnits="userSpaceOnUse"
       gradientTransform="matrix(0.85740374,0,0,0.85740374,-201.41213,131.88073)" />
    <linearGradient
       inkscape:collect="always"
       xlink:href="#linearGradient5453"
       id="linearGradient5451"
       x1="378.53952"
       y1="929.40808"
       x2="98.386131"
       y2="897.23547"
       gradientUnits="userSpaceOnUse"
       gradientTransform="matrix(0.85740374,0,0,0.85740374,-201.41213,131.88073)" />
    <linearGradient
       inkscape:collect="always"
       xlink:href="#linearGradient5453"
       id="linearGradient5435"
       x1="421.43542"
       y1="966.2348"
       x2="517.79858"
       y2="941.99115"
       gradientUnits="userSpaceOnUse"
       gradientTransform="matrix(0.85740374,0,0,0.85740374,-201.41213,131.88073)" />
  </defs>
  <sodipodi:namedview
     id="base"
     pagecolor="#ffffff"
     bordercolor="#666666"
     borderopacity="1.0"
     inkscape:pageopacity="0.0"
     inkscape:pageshadow="2"
     inkscape:zoom="1.4142136"
     inkscape:cx="416.60974"
     inkscape:cy="286.84265"
     inkscape:document-units="px"
     inkscape:current-layer="layer5"
     showgrid="false"
     units="px"
     inkscape:window-width="1920"
     inkscape:window-height="997"
     inkscape:window-x="1920"
     inkscape:window-y="0"
     inkscape:window-maximized="1" />
  <metadata
     id="metadata4790">
    <rdf:RDF>
      <cc:Work
         rdf:about="">
        <dc:format>image/svg+xml</dc:format>
        <dc:type
           rdf:resource="http://purl.org/dc/dcmitype/StillImage" />
        <dc:title />
      </cc:Work>
    </rdf:RDF>
  </metadata>
  <g
     inkscape:label="Layer 1"
     inkscape:groupmode="layer"
     id="layer1"
     transform="translate(0,-412.36216)">
    <path
       sodipodi:nodetypes="ccssccssc"
       inkscape:connector-curvature="0"
       id="path4440"
       d="m 172.57189,801.74092 26.65917,-8.6742 c 0,0 -5.58991,-42.7814 -2.08442,-91.5962 2.14317,-29.8438 8.14586,-61.86382 19.5083,-88.53341 29.94766,-70.29238 54.62064,13.50511 54.62064,13.50511 l 26.33502,-8.32816 c 0,0 -31.72999,-101.03254 -89.69172,-43.87135 -15.19985,14.98994 -32.85549,66.9941 -36.91859,111.55971 -5.39452,59.1692 1.5716,115.9385 1.5716,115.9385 z"
       style="display:inline;fill:#333f4f;fill-opacity:0;fill-rule:evenodd;stroke:none;stroke-width:1px;stroke-linecap:butt;stroke-linejoin:miter;stroke-opacity:1" />
    <path
       sodipodi:nodetypes="ccsssccsssc"
       inkscape:connector-curvature="0"
       id="path4442"
       d="m 154.16247,743.91312 0.21222,-36.0761 c 0,0 -88.226699,66.4111 -70.670059,114.27917 17.556649,47.8681 124.451279,33.5618 238.323369,-49.99457 91.5581,-67.1831 92.2074,-125.1279 58.8222,-139.28912 -25.5394,-10.83317 -52.3411,-5.30249 -52.3411,-5.30249 -4.0751,8.46361 -7.5514,16.41731 -8.0372,27.07415 0,0 37.9009,-9.73211 50.7414,5.37574 15.9384,18.75292 -41.3718,78.03192 -99.63758,113.51792 -65.23875,39.73277 -142.79052,61.30997 -160.55855,41.67937 -16.254679,-17.95857 43.1453,-71.26407 43.1453,-71.26407 z"
       style="display:inline;fill:#333f4f;fill-opacity:1;fill-rule:evenodd;stroke:none;stroke-width:1px;stroke-linecap:butt;stroke-linejoin:miter;stroke-opacity:1" />
    <path
       sodipodi:nodetypes="cccccsccssc"
       inkscape:connector-curvature="0"
       id="path4444"
       d="m 172.51781,802.01862 26.65918,-8.6742 c 0,0 -2.46655,-13.2382 -3.32084,-37.2914 l -18.90215,-11.0254 19.28971,-40.3084 c 2.14316,-29.8438 8.99471,-64.83486 20.35715,-91.50446 29.94767,-70.29237 55.38157,12.52756 55.38157,12.52756 5.94082,-4.18788 15.38497,-14.0586 20.17457,-23.99106 0,0 -26.06208,-84.11862 -84.2922,-27.2309 -19.94985,19.48994 -32.85549,66.99411 -36.9186,111.55976 -5.39451,59.1691 1.57161,115.9385 1.57161,115.9385 z"
       style="color:#000000;clip-rule:nonzero;display:inline;overflow:visible;visibility:visible;opacity:1;isolation:auto;mix-blend-mode:normal;color-interpolation:sRGB;color-interpolation-filters:linearRGB;solid-color:#000000;solid-opacity:1;fill:#333f4f;fill-opacity:1;fill-rule:evenodd;stroke:none;stroke-width:1px;stroke-linecap:butt;stroke-linejoin:miter;stroke-miterlimit:4;stroke-dasharray:none;stroke-dashoffset:0;stroke-opacity:1;color-rendering:auto;image-rendering:auto;shape-rendering:auto;text-rendering:auto;enable-background:accumulate" />
    <path
       sodipodi:nodetypes="ccsccsc"
       inkscape:connector-curvature="0"
       id="path4446"
       d="m 321.3946,819.56529 -6.1898,26.9727 c 0,0 59.5689,15.7597 79.7175,-16.3187 22.5187,-35.85167 -23.1087,-81.78097 -23.1087,-81.78097 l -20.4077,18.9072 c 0,0 28.8802,31.5723 20.7077,46.51757 -7.7867,14.24 -50.719,5.7022 -50.719,5.7022 z"
       style="color:#000000;clip-rule:nonzero;display:inline;overflow:visible;visibility:visible;opacity:1;isolation:auto;mix-blend-mode:normal;color-interpolation:sRGB;color-interpolation-filters:linearRGB;solid-color:#000000;solid-opacity:1;fill:#333f4f;fill-opacity:1;fill-rule:evenodd;stroke:none;stroke-width:0.5;stroke-linecap:butt;stroke-linejoin:miter;stroke-miterlimit:4;stroke-dasharray:none;stroke-dashoffset:0;stroke-opacity:1;color-rendering:auto;image-rendering:auto;shape-rendering:auto;text-rendering:auto;enable-background:accumulate" />
    <path
       sodipodi:nodetypes="ccsccsc"
       inkscape:connector-curvature="0"
       id="path4448"
       d="m 310.4404,798.55732 -31.06173,19.24477 c 0,0 -11.60236,67.1975 -37.36415,73.0401 -15.76511,3.5754 -30.61157,-41.9098 -30.61157,-41.9098 l -26.41,8.4472 c 0,0 20.10236,64.9211 59.57253,61.0731 53.87032,-5.252 65.87492,-119.89537 65.87492,-119.89537 z"
       style="color:#000000;clip-rule:nonzero;display:inline;overflow:visible;visibility:visible;opacity:1;isolation:auto;mix-blend-mode:normal;color-interpolation:sRGB;color-interpolation-filters:linearRGB;solid-color:#000000;solid-opacity:1;fill:#333f4f;fill-opacity:1;fill-rule:evenodd;stroke:none;stroke-width:0.5;stroke-linecap:butt;stroke-linejoin:miter;stroke-miterlimit:4;stroke-dasharray:none;stroke-dashoffset:0;stroke-opacity:1;color-rendering:auto;image-rendering:auto;shape-rendering:auto;text-rendering:auto;enable-background:accumulate" />
    <path
       sodipodi:nodetypes="ccsccsc"
       inkscape:connector-curvature="0"
       id="path4450"
       d="m 167.28625,628.54301 -6.00227,27.16027 c 0,0 -45.91737,-9.15346 -51.61953,7.05266 -5.38721,15.31098 21.30805,45.31718 21.30805,45.31718 l -20.1076,18.9071 c 0,0 -44.700279,-47.0356 -23.108719,-81.63085 18.628569,-29.84786 79.530069,-16.80636 79.530069,-16.80636 z"
       style="color:#000000;clip-rule:nonzero;display:inline;overflow:visible;visibility:visible;opacity:1;isolation:auto;mix-blend-mode:normal;color-interpolation:sRGB;color-interpolation-filters:linearRGB;solid-color:#000000;solid-opacity:1;fill:#333f4f;fill-opacity:1;fill-rule:evenodd;stroke:none;stroke-width:1px;stroke-linecap:butt;stroke-linejoin:miter;stroke-miterlimit:4;stroke-dasharray:none;stroke-dashoffset:0;stroke-opacity:1;color-rendering:auto;image-rendering:auto;shape-rendering:auto;text-rendering:auto;enable-background:accumulate" />
    <path
       sodipodi:nodetypes="zzssssssssccssssccssssccsszz"
       inkscape:connector-curvature="0"
       id="path4436"
       d="m 421.9661,423.31759 c -25.7621,-14.87382 -36.0552,35.34278 -66.4022,87.90519 -30.3469,52.56244 -59.2575,110.71767 -79.12773,119.96264 -22.4025,10.42312 -38.73922,15.86459 -53.22715,40.9584 -13.11366,22.7135 -40.51577,70.2551 -38.29261,71.5387 l 6.25755,3.6128 c 3.54406,2.0461 17.13034,-22.9041 26.81989,-38.3102 13.61075,-21.6406 18.92315,-32.091 25.51723,-34.3956 0.96995,-0.339 4.43952,1.7127 4.61837,2.6665 1.25993,6.717 -5.76696,16.2996 -18.54031,38.4237 -9.77923,16.9381 -21.85534,37.4899 -20.95737,41.6948 l 7.48538,4.3217 c 3.95471,-1.1558 12.01443,-17.7336 24.62569,-39.5769 12.77335,-22.1241 18.62349,-32.3861 25.17157,-34.5952 0.96603,-0.3259 4.97637,2.1141 5.26556,3.0401 2.28248,7.3074 -4.89581,16.8026 -17.6692,38.9267 -12.65307,21.9158 -21.97751,38.1148 -20.94335,41.7029 l 6.9846,4.0326 c 3.18214,-0.2781 14.01194,-18.1373 25.94907,-38.8129 10.89033,-18.8627 18.19251,-32.635 24.71601,-34.8582 0.842,-0.287 4.782,2.1947 4.9212,2.7438 1.8109,7.1326 -4.2657,17.2638 -17.03904,39.3879 -7.46452,12.929 -17.37152,30.0191 -17.37152,30.0191 l 23.99116,-14.4669 c 0,0 17.2777,-28.6333 22.8956,-38.3639 14.5742,-25.2433 5.6447,-43.9123 5.3565,-68.59647 -0.2427,-20.78594 34.9292,-74.56031 65.6386,-127.75061 30.7095,-53.19029 69.1188,-86.33682 43.3565,-101.21065 z"
       style="color:#000000;clip-rule:nonzero;display:inline;overflow:visible;visibility:visible;opacity:1;isolation:auto;mix-blend-mode:normal;color-interpolation:sRGB;color-interpolation-filters:linearRGB;solid-color:#000000;solid-opacity:1;fill:#333f4f;fill-opacity:1;fill-rule:evenodd;stroke:none;stroke-width:1px;stroke-linecap:butt;stroke-linejoin:miter;stroke-miterlimit:4;stroke-dasharray:none;stroke-dashoffset:0;stroke-opacity:1;color-rendering:auto;image-rendering:auto;shape-rendering:auto;text-rendering:auto;enable-background:accumulate" />
    <path
       sodipodi:nodetypes="sccsczcczccscczcsc"
       inkscape:connector-curvature="0"
       id="path5254"
       d="m 172.00844,939.81459 c -3.89767,0 -4.83678,1.6163 -4.83678,1.6163 l 0,2.5149 c 0,0 -3.91439,-4.1243 -14.42626,-4.1243 -11.85069,0 -24.42032,11.1103 -24.42032,28.0463 -0.38506,14.338 10.60361,26.7215 23.57776,26.8338 12.97414,0.1123 14.18309,-4.1285 14.18309,-4.1285 l 0,2.5461 c 0,0 2.01292,1.5922 6.00491,1.5922 3.99206,0 5.93442,-1.5922 5.93442,-1.5922 l 0,-51.6883 c 0,0 -1.61817,-1.6163 -6.01682,-1.6163 z m -4.83541,18.2795 0,18.845 c 0,0 -4.04918,7.6869 -13.71101,7.6869 -9.66183,0 -13.96471,-9.6839 -13.94241,-17.5331 0,-8.7866 5.48566,-15.7443 12.63984,-15.7443 10.07887,0 15.01358,6.7455 15.01358,6.7455 z"
       style="color:#000000;font-style:normal;font-variant:normal;font-weight:normal;font-stretch:normal;font-size:medium;line-height:normal;font-family:sans-serif;text-indent:0;text-align:start;text-decoration:none;text-decoration-line:none;text-decoration-style:solid;text-decoration-color:#000000;letter-spacing:normal;word-spacing:normal;text-transform:none;direction:ltr;block-progression:tb;writing-mode:lr-tb;baseline-shift:baseline;text-anchor:start;white-space:normal;clip-rule:nonzero;display:inline;overflow:visible;visibility:visible;opacity:1;isolation:auto;mix-blend-mode:normal;color-interpolation:sRGB;color-interpolation-filters:linearRGB;solid-color:#000000;solid-opacity:1;fill:url(#linearGradient5435);fill-opacity:1;fill-rule:evenodd;stroke:none;stroke-width:18;stroke-linecap:round;stroke-linejoin:miter;stroke-miterlimit:4;stroke-dasharray:none;stroke-dashoffset:0;stroke-opacity:1;color-rendering:auto;image-rendering:auto;shape-rendering:auto;text-rendering:auto;enable-background:accumulate" />
    <path
       sodipodi:nodetypes="zccczcczcccz"
       inkscape:connector-curvature="0"
       id="path5256"
       d="m 63.638501,893.99649 c -4.22649,3.4935 -3.86852,7.0876 -3.86852,7.0876 l 41.640339,50.5643 -33.185909,70.91161 c 0,0 0.10529,2.5002 5.50222,5.1686 5.39693,2.6682 8.47586,1.3725 8.47586,1.3725 L 143.54152,898.11069 c 0,0 -1.16274,-3.6979 -5.3749,-5.6871 -4.21216,-1.9892 -8.6031,-0.854 -8.6031,-0.854 l -20.91551,44.6121 -36.983179,-44.9326 c 0,0 -3.79984,-0.7462 -8.02633,2.7474 z"
       style="color:#000000;font-style:normal;font-variant:normal;font-weight:normal;font-stretch:normal;font-size:medium;line-height:normal;font-family:sans-serif;text-indent:0;text-align:start;text-decoration:none;text-decoration-line:none;text-decoration-style:solid;text-decoration-color:#000000;letter-spacing:normal;word-spacing:normal;text-transform:none;direction:ltr;block-progression:tb;writing-mode:lr-tb;baseline-shift:baseline;text-anchor:start;white-space:normal;clip-rule:nonzero;display:inline;overflow:visible;visibility:visible;opacity:1;isolation:auto;mix-blend-mode:normal;color-interpolation:sRGB;color-interpolation-filters:linearRGB;solid-color:#000000;solid-opacity:1;fill:url(#linearGradient5451);fill-opacity:1;fill-rule:evenodd;stroke:none;stroke-width:18;stroke-linecap:round;stroke-linejoin:miter;stroke-miterlimit:4;stroke-dasharray:none;stroke-dashoffset:0;stroke-opacity:1;color-rendering:auto;image-rendering:auto;shape-rendering:auto;text-rendering:auto;enable-background:accumulate" />
    <path
       sodipodi:nodetypes="zcczcssczcscz"
       inkscape:connector-curvature="0"
       id="path5258"
       d="m 193.19858,939.80459 c -3.73237,0 -5.39471,1.6308 -5.39471,1.6308 l 0,51.6409 c 0,0 1.66534,1.6639 5.87614,1.6639 4.21087,0 5.87621,-1.6639 5.87621,-1.6639 0,0 0,-19.4484 0,-29.3864 0,-4.139 0.21272,-8.1681 5.39419,-11.1842 6.74356,-3.9253 13.10259,-1.3987 17.87421,4.3273 0,0 2.31953,0.8285 5.90528,-1.562 3.58584,-2.3905 3.95846,-4.9958 3.95846,-4.9958 0,0 -6.87689,-10.4967 -20.19074,-10.4967 -6.35294,0 -13.58916,1.6648 -13.58916,1.6648 0,0 -1.97743,-1.6387 -5.70988,-1.6387 z"
       style="color:#000000;font-style:normal;font-variant:normal;font-weight:normal;font-stretch:normal;font-size:medium;line-height:normal;font-family:sans-serif;text-indent:0;text-align:start;text-decoration:none;text-decoration-line:none;text-decoration-style:solid;text-decoration-color:#000000;letter-spacing:normal;word-spacing:normal;text-transform:none;direction:ltr;block-progression:tb;writing-mode:lr-tb;baseline-shift:baseline;text-anchor:start;white-space:normal;clip-rule:nonzero;display:inline;overflow:visible;visibility:visible;opacity:1;isolation:auto;mix-blend-mode:normal;color-interpolation:sRGB;color-interpolation-filters:linearRGB;solid-color:#000000;solid-opacity:1;fill:url(#linearGradient5467);fill-opacity:1;fill-rule:evenodd;stroke:none;stroke-width:18;stroke-linecap:round;stroke-linejoin:miter;stroke-miterlimit:4;stroke-dasharray:none;stroke-dashoffset:0;stroke-opacity:1;color-rendering:auto;image-rendering:auto;shape-rendering:auto;text-rendering:auto;enable-background:accumulate" />
    <path
       sodipodi:nodetypes="zcczcczsczcszcz"
       inkscape:connector-curvature="0"
       id="path5260"
       d="m 243.76388,939.81579 c -3.97784,0 -5.15137,1.6517 -5.15137,1.6517 l 0,51.6214 c 0,0 0.53485,1.628 5.9136,1.628 5.37879,0 6.48829,-1.628 6.48829,-1.628 l 0,-31.8215 c 1.0154,-5.5904 4.9828,-9.4157 11.0374,-9.4157 6.0545,0 12.0707,4.8339 12.0707,12.5338 l 0,28.7091 c 0,0 1.1523,1.6235 6.3568,1.6235 5.2043,0 6.4781,-1.6235 6.4781,-1.6235 l 0,-28.7091 c 0,-16.118 -14.6614,-24.5645 -24.6979,-24.5645 -10.0365,0 -12.5935,1.641 -12.5935,1.641 0,0 -1.9242,-1.6462 -5.90212,-1.6462 z"
       style="color:#000000;font-style:normal;font-variant:normal;font-weight:normal;font-stretch:normal;font-size:medium;line-height:normal;font-family:sans-serif;text-indent:0;text-align:start;text-decoration:none;text-decoration-line:none;text-decoration-style:solid;text-decoration-color:#000000;letter-spacing:normal;word-spacing:normal;text-transform:none;direction:ltr;block-progression:tb;writing-mode:lr-tb;baseline-shift:baseline;text-anchor:start;white-space:normal;clip-rule:nonzero;display:inline;overflow:visible;visibility:visible;opacity:1;isolation:auto;mix-blend-mode:normal;color-interpolation:sRGB;color-interpolation-filters:linearRGB;solid-color:#000000;solid-opacity:1;fill:url(#linearGradient5443);fill-opacity:1;fill-rule:evenodd;stroke:none;stroke-width:18;stroke-linecap:round;stroke-linejoin:miter;stroke-miterlimit:4;stroke-dasharray:none;stroke-dashoffset:0;stroke-opacity:1;color-rendering:auto;image-rendering:auto;shape-rendering:auto;text-rendering:auto;enable-background:accumulate" />
    <path
       sodipodi:nodetypes="zcczccssszcczcszcczc"
       inkscape:connector-curvature="0"
       id="path5262"
       d="m 304.7569,891.14209 c -5.6244,0.085 -6.5993,1.6055 -6.5993,1.6055 l 0,100.3477 c 0,0 0.2226,1.6624 6.2548,1.6624 6.0322,0 8.1815,-1.6579 8.1815,-1.6579 l 0,-3.6388 c 0,0 3.7992,5.2753 17.6725,5.2753 10.893,0 18.9564,-5.3502 21.8314,-12.6161 3.3178,-8.3849 3.3394,-17.4979 0.2636,-27.3185 -2.3915,-7.6361 -8.8636,-15.0021 -22.3231,-15.0021 -13.4593,0 -17.3136,4.0036 -17.3136,4.0036 l 0,-51.0556 c 0,0 -2.3434,-1.6909 -7.9678,-1.6055 z m 35.326,68.2732 c 1.7725,5.6593 1.3504,7.3628 1.3504,12.1482 0,4.8517 -2.5467,10.9209 -13.8009,11.0033 -11.2542,0.082 -13.4039,-9.3964 -13.4039,-9.3964 l 0,-13.5742 c 0,0 4.9841,-7.7347 12.4161,-7.7347 7.4321,0 12.2758,3.8258 13.4383,7.5538 z"
       style="color:#000000;font-style:normal;font-variant:normal;font-weight:normal;font-stretch:normal;font-size:medium;line-height:normal;font-family:sans-serif;text-indent:0;text-align:start;text-decoration:none;text-decoration-line:none;text-decoration-style:solid;text-decoration-color:#000000;letter-spacing:normal;word-spacing:normal;text-transform:none;direction:ltr;block-progression:tb;writing-mode:lr-tb;baseline-shift:baseline;text-anchor:start;white-space:normal;clip-rule:nonzero;display:inline;overflow:visible;visibility:visible;opacity:1;isolation:auto;mix-blend-mode:normal;color-interpolation:sRGB;color-interpolation-filters:linearRGB;solid-color:#000000;solid-opacity:1;fill:url(#linearGradient5427);fill-opacity:1;fill-rule:evenodd;stroke:none;stroke-width:18;stroke-linecap:round;stroke-linejoin:miter;stroke-miterlimit:4;stroke-dasharray:none;stroke-dashoffset:0;stroke-opacity:1;color-rendering:auto;image-rendering:auto;shape-rendering:auto;text-rendering:auto;enable-background:accumulate" />
    <path
       sodipodi:nodetypes="zcczccz"
       inkscape:connector-curvature="0"
       id="path5266"
       d="m 433.5219,891.16129 c -6.1858,0 -7.5454,1.5097 -7.5454,1.5097 l 0,100.4243 c 0,0 1.5713,1.6149 7.7166,1.6149 6.1454,0 6.9511,-1.6149 6.9511,-1.6149 l 0,-100.4243 c 0,0 -0.9367,-1.5097 -7.1223,-1.5097 z"
       style="color:#000000;font-style:normal;font-variant:normal;font-weight:normal;font-stretch:normal;font-size:medium;line-height:normal;font-family:sans-serif;text-indent:0;text-align:start;text-decoration:none;text-decoration-line:none;text-decoration-style:solid;text-decoration-color:#000000;letter-spacing:normal;word-spacing:normal;text-transform:none;direction:ltr;block-progression:tb;writing-mode:lr-tb;baseline-shift:baseline;text-anchor:start;white-space:normal;clip-rule:nonzero;display:inline;overflow:visible;visibility:visible;opacity:1;isolation:auto;mix-blend-mode:normal;color-interpolation:sRGB;color-interpolation-filters:linearRGB;solid-color:#000000;solid-opacity:1;fill:url(#linearGradient5475);fill-opacity:1;fill-rule:evenodd;stroke:none;stroke-width:18;stroke-linecap:round;stroke-linejoin:miter;stroke-miterlimit:4;stroke-dasharray:none;stroke-dashoffset:0;stroke-opacity:1;color-rendering:auto;image-rendering:auto;shape-rendering:auto;text-rendering:auto;enable-background:accumulate" />
    <path
       style="color:#000000;font-style:normal;font-variant:normal;font-weight:normal;font-stretch:normal;font-size:medium;line-height:normal;font-family:sans-serif;text-indent:0;text-align:start;text-decoration:none;text-decoration-line:none;text-decoration-style:solid;text-decoration-color:#000000;letter-spacing:normal;word-spacing:normal;text-transform:none;direction:ltr;block-progression:tb;writing-mode:lr-tb;baseline-shift:baseline;text-anchor:start;white-space:normal;clip-rule:nonzero;display:inline;overflow:visible;visibility:visible;opacity:1;isolation:auto;mix-blend-mode:normal;color-interpolation:sRGB;color-interpolation-filters:linearRGB;solid-color:#000000;solid-opacity:1;fill:url(#linearGradient5419);fill-opacity:1;fill-rule:evenodd;stroke:none;stroke-width:18;stroke-linecap:round;stroke-linejoin:miter;stroke-miterlimit:4;stroke-dasharray:none;stroke-dashoffset:0;stroke-opacity:1;color-rendering:auto;image-rendering:auto;shape-rendering:auto;text-rendering:auto;enable-background:accumulate"
       d="m 462.8225,891.16129 c -6.1857,0 -7.5453,1.5097 -7.5453,1.5097 l 0,100.4243 c 0,0 1.5713,1.6149 7.7167,1.6149 6.1453,0 6.951,-1.6149 6.951,-1.6149 l 0,-100.4243 c 0,0 -0.9368,-1.5097 -7.1224,-1.5097 z"
       id="path5278"
       inkscape:connector-curvature="0"
       sodipodi:nodetypes="zcczccz" />
    <path
       style="color:#000000;font-style:normal;font-variant:normal;font-weight:normal;font-stretch:normal;font-size:medium;line-height:normal;font-family:sans-serif;text-indent:0;text-align:start;text-decoration:none;text-decoration-line:none;text-decoration-style:solid;text-decoration-color:#000000;letter-spacing:normal;word-spacing:normal;text-transform:none;direction:ltr;block-progression:tb;writing-mode:lr-tb;baseline-shift:baseline;text-anchor:start;white-space:normal;clip-rule:nonzero;display:inline;overflow:visible;visibility:visible;opacity:1;isolation:auto;mix-blend-mode:normal;color-interpolation:sRGB;color-interpolation-filters:linearRGB;solid-color:#000000;solid-opacity:1;fill:url(#linearGradient5459);fill-opacity:1;fill-rule:evenodd;stroke:none;stroke-width:18;stroke-linecap:round;stroke-linejoin:miter;stroke-miterlimit:4;stroke-dasharray:none;stroke-dashoffset:0;stroke-opacity:1;color-rendering:auto;image-rendering:auto;shape-rendering:auto;text-rendering:auto;enable-background:accumulate"
       d="m 406.724,939.81459 c -3.8977,0 -4.8369,1.6163 -4.8369,1.6163 l 0,2.5149 c 0,0 -3.9144,-4.1243 -14.4262,-4.1243 -11.8507,0 -24.4203,11.1103 -24.4203,28.0463 -0.385,14.338 10.6036,26.7215 23.5778,26.8338 12.9741,0.1123 14.183,-4.1285 14.183,-4.1285 l 0,2.5461 c 0,0 2.0129,1.5922 6.005,1.5922 3.992,0 5.9343,-1.5922 5.9343,-1.5922 l 0,-51.6883 c 0,0 -1.6181,-1.6163 -6.0167,-1.6163 z m -4.8356,18.2795 0,18.845 c 0,0 -4.0491,7.6869 -13.7109,7.6869 -9.6618,0 -13.9647,-9.6839 -13.9424,-17.5331 0,-8.7866 5.4857,-15.7443 12.6399,-15.7443 10.0788,0 15.0134,6.7455 15.0134,6.7455 z"
       id="path5288"
       inkscape:connector-curvature="0"
       sodipodi:nodetypes="sccsczcczccscczcsc" />
  </g>
  <g
     inkscape:groupmode="layer"
     id="layer4"
     inkscape:label="beta"
     style="display:none">
    <rect
       transform="translate(0,-412.36216)"
       style="color:#000000;clip-rule:nonzero;display:inline;overflow:visible;visibility:visible;opacity:1;isolation:auto;mix-blend-mode:normal;color-interpolation:sRGB;color-interpolation-filters:linearRGB;solid-color:#000000;solid-opacity:1;fill:#af0800;fill-opacity:1;fill-rule:evenodd;stroke:none;stroke-width:4.99999952;stroke-linecap:butt;stroke-linejoin:miter;stroke-miterlimit:4;stroke-dasharray:none;stroke-dashoffset:0;stroke-opacity:1;color-rendering:auto;image-rendering:auto;shape-rendering:auto;text-rendering:auto;enable-background:accumulate"
       id="rect4804-1"
       width="55.070412"
       height="24.555908"
       x="480.76166"
       y="892.82379"
       ry="6.0136909" />
    <text
       transform="translate(0,-412.36216)"
       xml:space="preserve"
       style="font-style:normal;font-variant:normal;font-weight:700;font-stretch:normal;font-size:20.04563141px;line-height:125%;font-family:Roboto;-inkscape-font-specification:'Roboto Bold';letter-spacing:0px;word-spacing:0px;display:inline;fill:#ffffff;fill-opacity:1;stroke:none;stroke-width:1px;stroke-linecap:butt;stroke-linejoin:miter;stroke-opacity:1"
       x="483.70477"
       y="912.2851"
       id="text4806-3"
       sodipodi:linespacing="125%"><tspan
         sodipodi:role="line"
         id="tspan4808-4"
         x="483.70477"
         y="912.2851">BETA</tspan></text>
  </g>
  <g
     inkscape:groupmode="layer"
     id="layer5"
     inkscape:label="beta (as path)"
     style="display:inline">
    <rect
       ry="6.0136909"
       y="892.82379"
       x="480.76166"
       height="24.555908"
       width="55.070412"
       id="rect4206"
       style="color:#000000;clip-rule:nonzero;display:inline;overflow:visible;visibility:visible;opacity:1;isolation:auto;mix-blend-mode:normal;color-interpolation:sRGB;color-interpolation-filters:linearRGB;solid-color:#000000;solid-opacity:1;fill:#af0800;fill-opacity:1;fill-rule:evenodd;stroke:none;stroke-width:4.99999952;stroke-linecap:butt;stroke-linejoin:miter;stroke-miterlimit:4;stroke-dasharray:none;stroke-dashoffset:0;stroke-opacity:1;color-rendering:auto;image-rendering:auto;shape-rendering:auto;text-rendering:auto;enable-background:accumulate"
       transform="translate(0,-412.36216)" />
    <g
       transform="translate(0,-412.36216)"
       style="font-style:normal;font-variant:normal;font-weight:700;font-stretch:normal;font-size:20.04563141px;line-height:125%;font-family:Roboto;-inkscape-font-specification:'Roboto Bold';letter-spacing:0px;word-spacing:0px;display:inline;fill:#ffffff;fill-opacity:1;stroke:none;stroke-width:1px;stroke-linecap:butt;stroke-linejoin:miter;stroke-opacity:1"
       id="text4208">
      <path
         d="m 484.9772,912.2851 0,-14.2512 4.99183,0 q 2.5938,0 3.93474,0.99837 1.34094,0.98858 1.34094,2.90701 0,1.0473 -0.53833,1.84991 -0.53834,0.79282 -1.49755,1.16476 1.09625,0.27407 1.72267,1.10604 0.63621,0.83197 0.63621,2.03588 0,2.05546 -1.31157,3.11256 -1.31158,1.05709 -3.73898,1.07667 l -5.53996,0 z m 2.93637,-6.20554 0,3.84665 2.51549,0 q 1.03752,0 1.61501,-0.4894 0.58727,-0.49918 0.58727,-1.3703 0,-1.95758 -2.02609,-1.98695 l -2.69168,0 z m 0,-2.07503 2.17292,0 q 2.22185,-0.0392 2.22185,-1.77161 0,-0.96901 -0.5677,-1.38989 -0.55791,-0.43066 -1.77161,-0.43066 l -2.05546,0 0,3.59216 z"
         id="path4225"
         inkscape:connector-curvature="0" />
      <path
         d="m 506.35399,906.10893 -5.63784,0 0,3.81728 6.61663,0 0,2.35889 -9.553,0 0,-14.2512 9.53342,0 0,2.37847 -6.59705,0 0,3.3964 5.63784,0 0,2.30016 z"
         id="path4227"
         inkscape:connector-curvature="0" />
      <path
         d="m 519.97875,900.41237 -4.3654,0 0,11.87273 -2.93638,0 0,-11.87273 -4.30667,0 0,-2.37847 11.60845,0 0,2.37847 z"
         id="path4229"
         inkscape:connector-curvature="0" />
      <path
         d="m 528.53338,909.34872 -5.14844,0 -0.97879,2.93638 -3.12234,0 5.30504,-14.2512 2.72104,0 5.33441,14.2512 -3.12234,0 -0.98858,-2.93638 z m -4.35562,-2.37846 3.5628,0 -1.79119,-5.33441 -1.77161,5.33441 z"
         id="path4231"
         inkscape:connector-curvature="0" />
    </g>
  </g>
  <g
     inkscape:groupmode="layer"
     id="layer2"
     inkscape:label="data spaghetti"
     style="display:none">
    <text
       transform="translate(0,-412.36216)"
       xml:space="preserve"
       style="font-style:normal;font-variant:normal;font-weight:normal;font-stretch:normal;font-size:38.65717316px;line-height:125%;font-family:Ubuntu;-inkscape-font-specification:Ubuntu;letter-spacing:0px;word-spacing:0px;display:inline;fill:#ffb116;fill-opacity:1;stroke:none;stroke-width:1px;stroke-linecap:butt;stroke-linejoin:miter;stroke-opacity:1"
       x="216.44"
       y="1036.6099"
       id="text4457"
       sodipodi:linespacing="125%"><tspan
         sodipodi:role="line"
         id="tspan4459"
         x="216.44"
         y="1036.6099">data spaghetti</tspan></text>
  </g>
  <g
     inkscape:groupmode="layer"
     id="layer3"
     inkscape:label="data spaghetti (as path)">
    <text
       sodipodi:linespacing="125%"
       id="text4168"
       y="1036.6099"
       x="216.44"
       style="font-style:normal;font-variant:normal;font-weight:normal;font-stretch:normal;font-size:38.65717316px;line-height:125%;font-family:Ubuntu;-inkscape-font-specification:Ubuntu;letter-spacing:0px;word-spacing:0px;display:inline;fill:#ffb116;fill-opacity:1;stroke:none;stroke-width:1px;stroke-linecap:butt;stroke-linejoin:miter;stroke-opacity:1"
       xml:space="preserve"
       transform="translate(0,-412.36216)"><tspan
         y="1036.6099"
         x="216.44"
         id="tspan4170"
         sodipodi:role="line">data spaghetti</tspan></text>
  </g>
</svg>
