<?xml version="1.0" encoding="UTF-8" standalone="no"?>
<!-- Created with Inkscape (http://www.inkscape.org/) -->

<svg
   xmlns:dc="http://purl.org/dc/elements/1.1/"
   xmlns:cc="http://creativecommons.org/ns#"
   xmlns:rdf="http://www.w3.org/1999/02/22-rdf-syntax-ns#"
   xmlns:svg="http://www.w3.org/2000/svg"
   xmlns="http://www.w3.org/2000/svg"
   xmlns:sodipodi="http://sodipodi.sourceforge.net/DTD/sodipodi-0.dtd"
   xmlns:inkscape="http://www.inkscape.org/namespaces/inkscape"
   width="179.7581"
   height="250.41628"
   viewBox="0 0 179.7581 250.41628"
   id="svg2"
   version="1.1"
   inkscape:version="0.91 r13725"
   sodipodi:docname="signup-logo.svg">
  <defs
     id="defs4" />
  <sodipodi:namedview
     id="base"
     pagecolor="#ffffff"
     bordercolor="#000000"
     borderopacity="1"
     inkscape:pageopacity="0.0"
     inkscape:pageshadow="2"
     inkscape:zoom="1.4142136"
     inkscape:cx="181.34191"
     inkscape:cy="130.94685"
     inkscape:document-units="px"
     inkscape:current-layer="layer1"
     showgrid="false"
     units="px"
     showborder="true"
     borderlayer="true"
     inkscape:showpageshadow="false"
     inkscape:window-width="1113"
     inkscape:window-height="809"
     inkscape:window-x="2606"
     inkscape:window-y="110"
     inkscape:window-maximized="0"
     fit-margin-top="10"
     fit-margin-left="10"
     fit-margin-right="10"
     fit-margin-bottom="10" />
  <metadata
     id="metadata7">
    <rdf:RDF>
      <cc:Work
         rdf:about="">
        <dc:format>image/svg+xml</dc:format>
        <dc:type
           rdf:resource="http://purl.org/dc/dcmitype/StillImage" />
        <dc:title></dc:title>
      </cc:Work>
    </rdf:RDF>
  </metadata>
  <g
     inkscape:label="Layer 1"
     inkscape:groupmode="layer"
     id="layer1"
     transform="translate(-60.214844,-804.84082)">
    <path
       style="color:#000000;clip-rule:nonzero;display:inline;overflow:visible;visibility:visible;opacity:1;isolation:auto;mix-blend-mode:normal;color-interpolation:sRGB;color-interpolation-filters:linearRGB;solid-color:#000000;solid-opacity:1;fill:#333f4f;fill-opacity:1;fill-rule:evenodd;stroke:none;stroke-width:1px;stroke-linecap:butt;stroke-linejoin:miter;stroke-miterlimit:4;stroke-dasharray:none;stroke-dashoffset:0;stroke-opacity:1;color-rendering:auto;image-rendering:auto;shape-rendering:auto;text-rendering:auto;enable-background:accumulate"
       d="m 202.20696,1045.2571 c 17.3103,0 7.88679,-28.3012 7.88679,-63.61919 0,-35.31804 -2.351,-73.03667 4.97264,-83.47691 8.25695,-11.77072 14.90656,-19.26613 14.90656,-36.12727 0,-15.26191 -0.0232,-47.19291 -1.51701,-47.19291 l -4.20461,0 c -2.38134,0 -1.96874,16.5264 -2.3693,27.1095 -0.56268,14.86581 -0.19926,21.67786 -2.85178,24.75781 -0.39018,0.45306 -2.73558,0.42859 -3.10322,0 -2.58923,-3.01844 -1.83619,-9.892 -1.83619,-24.75781 0,-11.3812 0.10605,-25.2518 -1.56985,-27.1095 l -5.02962,0 c -1.65665,1.7331 -0.89495,12.4324 -0.89495,27.1095 0,14.86581 0.0375,21.73937 -2.61953,24.75781 -0.392,0.4453 -3.12293,0.38247 -3.53808,0 -3.27635,-3.01844 -2.42152,-9.892 -2.42152,-24.75781 0,-14.7259 -0.0142,-25.6022 -1.57928,-27.1095 l -4.69313,0 c -1.52271,1.0659 -1.78417,13.217 -1.78417,27.1095 0,12.67432 0.3272,21.73937 -2.31344,24.75781 -0.3408,0.38956 -3.04835,0.28525 -3.27836,0.0491 -2.98786,-3.06754 -2.87325,-9.9411 -2.87325,-24.80691 0,-17.1153 0.47247,-27.1095 -1.22086,-27.1095 l -4.9627,0 c -1.52065,0.9308 -2.05332,32.8652 -2.05332,47.19291 0,16.96158 9.93171,23.77172 17.25889,36.12728 6.17006,10.40431 4.09108,47.73698 4.09108,83.4769 0,35.73989 -9.71208,63.61919 7.59821,63.61919 z"
       id="path4403"
       inkscape:connector-curvature="0"
       sodipodi:nodetypes="zzssssssssccssssccssssscsszz" />
    <path
       style="color:#000000;clip-rule:nonzero;display:inline;overflow:visible;visibility:visible;opacity:1;isolation:auto;mix-blend-mode:normal;color-interpolation:sRGB;color-interpolation-filters:linearRGB;solid-color:#000000;solid-opacity:1;fill:#333f4f;fill-opacity:1;fill-rule:evenodd;stroke:none;stroke-width:1px;stroke-linecap:butt;stroke-linejoin:miter;stroke-miterlimit:4;stroke-dasharray:none;stroke-dashoffset:0;stroke-opacity:1;color-rendering:auto;image-rendering:auto;shape-rendering:auto;text-rendering:auto;enable-background:accumulate"
       d="m 190.36615,119.36577 c -5.83111,12.61729 -17.79508,18.49556 -25.73724,18.49556 l -62.42579,0 c -17.7216,0 -31.988276,14.26667 -31.988276,31.98828 l 0,36.40039 c 0,0 15.435339,-0.21119 24.785156,-0.33789 L 95,173.5 l 4.5,0 0,64.84961 77.33203,0 0,-64.84961 c 2.99565,-7.54826 14.06514,-12.10909 14.15039,-17.24805 0,-11.43872 0.18034,-27.02847 -0.61627,-36.88618 z"
       transform="translate(0,802.36216)"
       id="rect4142"
       inkscape:connector-curvature="0"
       sodipodi:nodetypes="cccsccccccccc" />
    <circle
       style="color:#000000;clip-rule:nonzero;display:inline;overflow:visible;visibility:visible;opacity:1;isolation:auto;mix-blend-mode:normal;color-interpolation:sRGB;color-interpolation-filters:linearRGB;solid-color:#000000;solid-opacity:1;fill:#333f4f;fill-opacity:1;fill-rule:evenodd;stroke:none;stroke-width:1px;stroke-linecap:butt;stroke-linejoin:miter;stroke-miterlimit:4;stroke-dasharray:none;stroke-dashoffset:0;stroke-opacity:1;color-rendering:auto;image-rendering:auto;shape-rendering:auto;text-rendering:auto;enable-background:accumulate"
       id="path4158"
       cx="132.63063"
       cy="897.7431"
       r="35.188614" />
  </g>
</svg>
